<svg width="2008" height="1508" viewBox="0 0 2008 1508" fill="none" xmlns="http://www.w3.org/2000/svg">
<g clip-path="url(#clip0_1_18)" filter="url(#filter0_d_1_18)">
<path d="M2004 0H4V1500H2004V0Z" fill="#2298EE"/>
<path d="M3.99976 3000C1660.85 3000 3004 1656.85 3004 -0.000244141C3004 -1656.85 1660.85 -3000 3.99976 -3000C-1652.85 -3000 -2996 -1656.85 -2996 -0.000244141C-2996 1656.85 -1652.85 3000 3.99976 3000Z" fill="url(#paint0_radial_1_18)"/>
<g opacity="0.5">
<path d="M3.99976 2000C1108.57 2000 2004 1104.57 2004 -0.000244141C2004 -1104.57 1108.57 -2000 3.99976 -2000C-1100.57 -2000 -1996 -1104.57 -1996 -0.000244141C-1996 1104.57 -1100.57 2000 3.99976 2000Z" fill="url(#paint1_radial_1_18)"/>
<path d="M3.99976 1800C998.112 1800 1804 994.112 1804 -0.000244141C1804 -994.113 998.112 -1800 3.99976 -1800C-990.113 -1800 -1796 -994.113 -1796 -0.000244141C-1796 994.112 -990.113 1800 3.99976 1800Z" fill="url(#paint2_radial_1_18)"/>
<path d="M3.99976 1700C942.884 1700 1704 938.884 1704 -0.000244141C1704 -938.884 942.884 -1700 3.99976 -1700C-934.884 -1700 -1696 -938.884 -1696 -0.000244141C-1696 938.884 -934.884 1700 3.99976 1700Z" fill="url(#paint3_radial_1_18)"/>
<path d="M3.99976 1651C915.822 1651 1655 911.822 1655 -0.000244141C1655 -911.822 915.822 -1651 3.99976 -1651C-907.822 -1651 -1647 -911.822 -1647 -0.000244141C-1647 911.822 -907.822 1651 3.99976 1651Z" fill="url(#paint4_radial_1_18)"/>
<path d="M3.99976 1450C804.813 1450 1454 800.813 1454 -0.000244141C1454 -800.813 804.813 -1450 3.99976 -1450C-796.813 -1450 -1446 -800.813 -1446 -0.000244141C-1446 800.813 -796.813 1450 3.99976 1450Z" fill="url(#paint5_radial_1_18)"/>
<path d="M3.99976 1250C694.356 1250 1254 690.356 1254 -0.000244141C1254 -690.356 694.356 -1250 3.99976 -1250C-686.356 -1250 -1246 -690.356 -1246 -0.000244141C-1246 690.356 -686.356 1250 3.99976 1250Z" fill="url(#paint6_radial_1_18)"/>
<path d="M3.99976 1175C652.934 1175 1179 648.934 1179 -0.000244141C1179 -648.935 652.934 -1175 3.99976 -1175C-644.935 -1175 -1171 -648.935 -1171 -0.000244141C-1171 648.934 -644.935 1175 3.99976 1175Z" fill="url(#paint7_radial_1_18)"/>
<path d="M3.99976 900C501.056 900 904 497.056 904 -0.000244141C904 -497.057 501.056 -900 3.99976 -900C-493.057 -900 -896 -497.057 -896 -0.000244141C-896 497.056 -493.057 900 3.99976 900Z" fill="url(#paint8_radial_1_18)"/>
<path d="M3.99976 750C418.213 750 754 414.213 754 -0.000244141C754 -414.214 418.213 -750 3.99976 -750C-410.214 -750 -746 -414.214 -746 -0.000244141C-746 414.213 -410.214 750 3.99976 750Z" fill="url(#paint9_radial_1_18)"/>
<path d="M3.99976 500C280.142 500 504 276.142 504 -0.000244141C504 -276.143 280.142 -500 3.99976 -500C-272.143 -500 -496 -276.143 -496 -0.000244141C-496 276.142 -272.143 500 3.99976 500Z" fill="url(#paint10_radial_1_18)"/>
<path d="M3.99976 380C213.868 380 384 209.868 384 -0.000244141C384 -209.868 213.868 -380 3.99976 -380C-205.868 -380 -376 -209.868 -376 -0.000244141C-376 209.868 -205.868 380 3.99976 380Z" fill="url(#paint11_radial_1_18)"/>
<path d="M3.99976 250C142.071 250 254 138.071 254 -0.000244141C254 -138.071 142.071 -250 3.99976 -250C-134.071 -250 -246 -138.071 -246 -0.000244141C-246 138.071 -134.071 250 3.99976 250Z" fill="url(#paint12_radial_1_18)"/>
</g>
<path d="M61.7642 176.81C50.3678 180.269 38.6532 182.642 26.8429 183.876C15.0285 185.099 3.12972 185.177 -8.64842 184.113C-20.4266 183.049 -32.0728 180.839 -43.38 177.561C-54.6913 174.271 -65.6523 169.909 -76.0825 164.549C-86.5127 159.189 -96.408 152.843 -105.594 145.638C-114.784 138.422 -123.254 130.344 -130.852 121.539C-138.449 112.735 -145.186 103.208 -150.927 93.1537C-156.676 83.0763 -161.426 72.482 -165.145 61.5634C-160.964 72.3137 -155.773 82.6455 -149.642 92.367C-143.523 102.093 -136.468 111.197 -128.625 119.516C-120.779 127.847 -112.145 135.393 -102.899 142.027C-93.6483 148.671 -83.7696 154.411 -73.4667 159.14C-63.1597 163.881 -52.4131 167.619 -41.4527 170.296C-30.4768 172.979 -19.2757 174.598 -8.04004 175.119C3.1956 175.639 14.4473 175.081 25.5255 173.45C36.6036 171.819 47.4928 169.107 58.0208 165.403C61.1454 164.304 64.4646 166.02 65.5635 169.144C66.6625 172.269 65.1369 175.621 62.001 176.724C61.9221 176.753 61.8544 176.777 61.7714 176.795L61.7642 176.81Z" fill="url(#paint13_linear_1_18)"/>
<path d="M291.625 115.669C283.831 133.924 274.312 151.424 263.234 167.824C252.138 184.218 239.491 199.493 225.515 213.391C211.538 227.289 196.24 239.791 179.941 250.715C163.623 261.632 146.311 270.953 128.293 278.528C110.276 286.102 91.5726 291.937 72.5329 295.947C53.4745 299.95 34.0867 302.109 14.7064 302.377C-4.67391 302.645 -24.0537 301.04 -43.0416 297.598C-62.0671 294.142 -80.682 288.857 -98.6061 281.907C-80.4016 288.086 -61.6497 292.528 -42.6701 295.115C-23.6973 297.722 -4.51547 298.467 14.508 297.367C33.5502 296.274 52.4341 293.335 70.8093 288.637C89.2033 283.945 107.114 277.481 124.19 269.394C141.285 261.313 157.57 251.597 172.73 240.471C187.915 229.333 201.981 216.766 214.683 202.979C227.384 189.191 238.726 174.228 248.511 158.336C258.297 142.445 266.5 125.637 273.05 108.227C274.994 103.06 280.741 100.661 285.908 102.606C291.074 104.55 293.719 110.089 291.768 115.274C291.72 115.406 291.679 115.519 291.613 115.643L291.625 115.669Z" fill="url(#paint14_linear_1_18)"/>
<path d="M243.07 304.981C223.223 319.872 201.981 332.866 179.739 343.697C157.481 354.508 134.243 363.14 110.427 369.45C86.6109 375.759 62.2364 379.731 37.7644 381.37C13.2763 382.99 -11.2902 382.26 -35.5285 379.199C-59.7668 376.138 -83.6609 370.764 -106.778 363.205C-129.911 355.627 -152.249 345.847 -173.396 334.024C-194.543 322.202 -214.519 308.352 -232.923 292.758C-251.359 277.127 -268.207 259.771 -283.267 241.045C-267.422 259.112 -249.898 275.64 -230.969 290.303C-212.059 304.982 -191.76 317.778 -170.479 328.477C-149.182 339.195 -126.903 347.816 -104.075 354.214C-81.2305 360.632 -57.8014 364.829 -34.2616 366.746C-10.7057 368.683 12.9961 368.343 36.3606 365.773C59.7604 363.207 82.8421 358.394 105.209 351.408C127.576 344.421 149.206 335.311 169.731 324.224C190.256 313.137 209.641 300.069 227.613 285.315C232.947 280.938 240.667 281.932 245.045 287.266C249.423 292.6 248.825 300.249 243.472 304.643C243.338 304.756 243.223 304.852 243.073 304.945L243.07 304.981Z" fill="url(#paint15_linear_1_18)"/>
<path d="M464.387 -65.4601C467.954 -35.9005 468.713 -6.0284 466.623 23.5843C464.504 53.2023 459.532 82.5313 451.8 111.068C444.067 139.604 433.57 167.318 420.59 193.733C407.58 220.153 392.082 245.246 374.358 268.598C356.634 291.951 336.713 313.558 314.987 333.047C293.232 352.541 269.666 369.887 244.691 384.77C219.716 399.653 193.337 412.102 166.09 421.872C138.783 431.653 110.638 438.748 82.1415 443.163C110.424 437.537 138.114 429.242 164.71 418.369C191.311 407.525 216.788 394.107 240.676 378.41C264.593 362.709 286.919 344.729 307.266 324.843C327.641 304.953 346.06 283.123 362.177 259.81C378.323 236.492 392.191 211.657 403.539 185.834C414.912 159.976 423.76 133.101 429.919 105.665C436.078 78.2286 439.589 50.2844 440.382 22.3016C441.175 -5.6812 439.225 -33.6679 434.676 -61.1961C433.327 -69.3659 438.993 -76.7927 447.163 -78.1419C455.333 -79.4911 462.923 -74.2799 464.278 -66.0806C464.314 -65.8737 464.345 -65.6965 464.352 -65.4845L464.387 -65.4601Z" fill="url(#paint16_linear_1_18)"/>
<path d="M593.368 -192.548C604.896 -154.56 612.808 -115.511 616.921 -76.1436C620.996 -36.7624 621.257 2.90024 617.711 42.1607C614.165 81.4212 606.798 120.242 595.87 157.933C584.905 195.637 570.364 232.174 552.498 266.941C534.631 301.708 513.477 334.693 489.461 365.313C465.408 395.947 438.48 424.18 409.132 449.505C379.784 474.83 348.029 497.285 314.513 516.422C280.922 535.587 245.607 551.42 209.212 563.815C245.046 549.879 279.486 532.576 311.89 512.141C344.309 491.743 374.656 468.225 402.387 442.084C430.156 415.929 455.31 387.15 477.422 356.329C499.572 325.494 518.703 292.565 534.468 258.222C550.27 223.865 562.73 188.043 571.652 151.508C580.599 114.922 585.994 77.5849 587.729 40.1328C589.465 2.68065 587.605 -34.8251 582.167 -71.7523C576.729 -108.679 567.69 -144.977 555.342 -180.07C551.679 -190.485 557.4 -201.549 567.815 -205.212C578.231 -208.875 589.404 -203.79 593.08 -193.337C593.176 -193.074 593.258 -192.849 593.317 -192.572L593.368 -192.548Z" fill="url(#paint17_linear_1_18)"/>
<path d="M661.923 409.643C634.81 451.205 603.776 490.156 569.384 525.726C534.948 561.27 497.179 593.388 456.736 621.538C416.293 649.688 373.201 673.826 328.329 693.645C283.414 713.44 236.745 728.873 189.098 739.7C141.451 750.527 92.8696 756.773 44.2527 758.38C-4.40742 759.962 -53.0777 756.861 -100.909 749.107C-148.74 741.352 -195.756 728.987 -241.011 712.271C-286.352 695.504 -329.888 674.41 -371 649.519C-328.863 672.634 -284.623 691.71 -239.018 706.32C-193.438 720.973 -146.536 731.135 -99.2223 736.686C-51.8653 742.261 -4.09721 743.224 43.1827 739.633C90.5059 736.067 137.409 727.928 182.961 715.43C228.557 702.956 272.869 686.105 315.022 665.293C357.244 644.463 397.331 619.63 434.588 591.199C471.845 562.769 506.264 530.853 537.255 495.975C568.245 461.098 595.739 423.278 619.422 383.258C626.452 371.381 641.643 367.97 653.519 375C665.395 382.03 669.503 396.814 662.448 408.734C662.273 409.037 662.123 409.297 661.905 409.575L661.923 409.643Z" fill="url(#paint18_linear_1_18)"/>
<path d="M292.822 884.052C235.839 901.343 177.266 913.212 118.215 919.381C59.143 925.494 -0.3509 925.885 -59.2416 920.566C-118.132 915.247 -176.363 904.197 -232.899 887.805C-289.456 871.357 -344.261 849.546 -396.412 822.746C-448.563 795.947 -498.04 764.215 -543.97 728.192C-589.922 692.112 -632.27 651.72 -670.258 607.698C-708.245 563.676 -741.928 516.043 -770.634 465.769C-799.38 415.383 -823.13 362.411 -841.723 307.818C-820.819 361.57 -794.865 413.228 -764.212 461.836C-733.615 510.463 -698.339 555.983 -659.127 597.581C-619.894 639.235 -576.726 676.966 -530.494 710.134C-484.241 743.358 -434.847 772.055 -383.333 795.702C-331.798 819.405 -278.065 838.095 -223.263 851.478C-168.383 864.898 -112.378 872.991 -56.1997 875.594C-0.0215174 878.197 56.2371 875.407 111.628 867.25C167.019 859.094 221.465 845.534 274.105 827.013C289.727 821.519 306.323 830.1 311.818 845.723C317.313 861.346 309.685 878.105 294.006 883.621C293.611 883.764 293.273 883.887 292.857 883.975L292.822 884.052Z" fill="url(#paint19_linear_1_18)"/>
<path d="M1010.69 404.842C983.408 468.735 950.091 529.984 911.32 587.385C872.484 644.763 828.218 698.227 779.301 746.87C730.385 795.513 676.84 839.269 619.793 877.503C562.68 915.714 502.088 948.337 439.027 974.848C375.967 1001.36 310.504 1021.78 243.865 1035.82C177.161 1049.83 109.304 1057.38 41.4727 1058.32C-26.3585 1059.26 -94.1877 1053.64 -160.645 1041.59C-227.235 1029.5 -292.387 1011 -355.121 986.677C-291.405 1008.3 -225.774 1023.85 -159.345 1032.9C-92.9404 1042.03 -25.8039 1044.64 40.7781 1040.79C107.426 1036.96 173.52 1026.67 237.833 1010.23C302.212 993.808 364.9 971.184 424.666 942.878C484.497 914.596 541.495 880.59 594.554 841.649C647.702 802.665 696.935 758.681 741.39 710.426C785.845 662.17 825.541 609.799 859.79 554.178C894.039 498.558 922.751 439.73 945.674 378.795C952.479 360.712 972.594 352.316 990.677 359.121C1008.76 365.926 1018.02 385.312 1011.19 403.46C1011.02 403.921 1010.88 404.315 1010.64 404.752L1010.69 404.842Z" fill="url(#paint20_linear_1_18)"/>
<path d="M1145.82 -609.478C1183.29 -535.561 1213.71 -458.153 1236.43 -378.713C1259.09 -299.23 1274 -217.787 1280.94 -135.791C1287.88 -53.7941 1286.81 28.6834 1278.01 110.129C1269.13 191.616 1252.48 271.998 1228.36 349.949C1204.23 427.899 1172.7 503.377 1134.43 575.031C1096.08 646.727 1050.96 714.528 999.807 777.23C948.653 839.931 891.511 897.604 829.547 949.096C767.437 1000.67 700.578 1046.02 630.25 1084.7C698.866 1043.06 763.394 995.003 822.604 941.245C881.855 887.56 935.717 828.212 983.251 764.419C1030.86 700.584 1072.14 632.303 1106.42 560.925C1140.78 489.506 1168.17 414.875 1188.13 338.559C1208.16 262.201 1220.79 184.042 1225.89 105.7C1231.02 27.2437 1228.58 -51.469 1218.57 -129.092C1208.56 -206.714 1191.14 -283.144 1166.58 -357.087C1142.01 -431.03 1110.27 -502.373 1072.17 -570.042C1060.86 -590.125 1068.61 -614.944 1088.7 -626.25C1108.78 -637.556 1133.59 -631.152 1144.94 -610.996C1145.23 -610.49 1145.48 -610.056 1145.7 -609.508L1145.82 -609.478Z" fill="url(#paint21_linear_1_18)"/>
<path d="M864.651 1097.93C793.203 1151.54 716.731 1198.32 636.661 1237.31C556.533 1276.23 472.875 1307.3 387.137 1330.02C301.399 1352.73 213.651 1367.03 125.552 1372.93C37.3949 1378.76 -51.0445 1376.14 -138.302 1365.12C-225.56 1354.1 -311.579 1334.75 -394.801 1307.54C-478.081 1280.26 -558.495 1245.05 -634.625 1202.49C-710.755 1159.93 -782.668 1110.07 -848.922 1053.93C-915.292 997.657 -975.944 935.175 -1030.16 867.763C-973.118 932.803 -910.033 992.303 -841.889 1045.09C-773.813 1097.94 -700.737 1144 -624.126 1182.52C-547.456 1221.1 -467.252 1252.14 -385.07 1275.17C-302.83 1298.27 -218.485 1313.38 -133.741 1320.29C-48.9402 1327.26 36.3863 1326.04 120.499 1316.78C204.738 1307.55 287.832 1290.22 368.352 1265.07C448.873 1239.92 526.741 1207.12 600.631 1167.21C674.522 1127.29 744.31 1080.25 809.006 1027.14C828.208 1011.38 856.003 1014.96 871.763 1034.16C887.523 1053.36 885.37 1080.9 866.098 1096.72C865.616 1097.12 865.202 1097.47 864.662 1097.8L864.651 1097.93Z" fill="url(#paint22_linear_1_18)"/>
<path d="M1305.41 977.395C1241.08 1059.38 1169.03 1135.19 1090.57 1203.3C1012.02 1271.36 927.129 1331.64 837.369 1383.13C747.609 1434.61 653.043 1477.22 555.544 1510.47C457.959 1543.66 357.502 1567.41 255.842 1581.34C154.183 1595.27 51.406 1599.44 -50.595 1593.91C-152.682 1588.31 -253.933 1572.91 -352.577 1547.94C-451.22 1522.96 -547.316 1488.49 -638.929 1445.23C-730.715 1401.86 -817.931 1349.76 -899.383 1290.16C-815.462 1346.23 -726.404 1394.24 -633.672 1433.15C-541 1472.15 -444.74 1501.99 -346.775 1522.26C-248.725 1542.59 -148.97 1553.35 -49.4024 1554.49C50.2509 1555.69 149.863 1547.25 247.445 1529.44C345.114 1511.69 440.901 1484.55 532.895 1448.73C625.035 1412.88 713.443 1368.26 796.588 1315.6C879.733 1262.95 957.581 1202.48 1028.8 1135.19C1100.01 1067.89 1164.45 993.805 1221.32 914.417C1238.2 890.859 1270.61 886.502 1294.16 903.383C1317.72 920.263 1323.61 951.945 1306.67 975.589C1306.25 976.191 1305.89 976.707 1305.38 977.249L1305.41 977.395Z" fill="url(#paint23_linear_1_18)"/>
<path d="M1752.92 633.364C1710.01 744.461 1656.59 851.388 1593.6 952.05C1530.5 1052.67 1457.86 1146.92 1376.96 1233.18C1296.07 1319.45 1206.95 1397.62 1111.5 1466.53C1015.94 1535.41 914.081 1594.93 807.63 1644.12C701.178 1693.32 590.247 1732.22 476.918 1760.25C363.475 1788.25 247.672 1805.25 131.517 1810.92C15.3615 1816.58 -101.182 1811.01 -215.761 1794.35C-330.569 1777.62 -443.297 1749.82 -552.231 1711.9C-441.776 1745.14 -328.404 1767.85 -214.053 1779.39C-99.7402 1791.04 15.4367 1791.5 129.278 1780.92C243.233 1770.38 355.851 1748.8 465.052 1716.78C574.366 1684.79 680.413 1642.28 781.112 1590.21C881.925 1538.18 977.543 1476.51 1066.11 1406.62C1154.84 1336.65 1236.55 1258.35 1309.83 1173.01C1383.11 1087.68 1447.98 995.582 1503.33 898.241C1558.68 800.901 1604.35 698.397 1639.98 592.63C1650.55 561.242 1684.51 545.653 1715.9 556.23C1747.29 566.807 1764.31 599.465 1753.7 630.967C1753.44 631.766 1753.21 632.451 1752.84 633.213L1752.92 633.364Z" fill="url(#paint24_linear_1_18)"/>
<path d="M1384.1 -1537.73C1480.67 -1447.31 1568.57 -1347.8 1646.03 -1241.03C1723.41 -1134.17 1790.26 -1020.13 1845.44 -900.919C1900.62 -781.703 1944.05 -657.39 1975.31 -530.405C2006.49 -403.318 2025.4 -273.644 2031.77 -143.534C2038.14 -13.4248 2032.05 117.018 2013.76 245.405C1995.39 373.895 1964.71 500.243 1922.21 622.233C1879.71 744.223 1825.48 861.941 1760.64 973.018C1695.63 1084.3 1620.09 1188.84 1535.71 1285.25C1615.9 1185.32 1686.47 1078 1745.94 965.031C1805.51 852.145 1853.9 733.708 1890.38 612.055C1926.94 490.301 1951.59 365.332 1964.05 239.536C1976.59 113.638 1976.94 -13.2741 1965.21 -138.657C1953.57 -264.142 1929.84 -388.285 1894.71 -508.593C1859.57 -629.089 1812.93 -745.835 1755.53 -856.814C1698.14 -967.794 1630.27 -1072.94 1553.05 -1170.45C1475.83 -1267.96 1389.26 -1357.65 1295.15 -1438.36C1267.22 -1462.32 1265.3 -1503.78 1289.25 -1531.71C1313.21 -1559.63 1353.93 -1563.57 1381.96 -1539.53C1382.67 -1538.93 1383.28 -1538.42 1383.91 -1537.72L1384.1 -1537.73Z" fill="url(#paint25_linear_1_18)"/>
<path d="M2140.46 -697.986C2182.25 -560.279 2210.93 -418.727 2225.84 -276.02C2240.61 -133.263 2241.56 10.5143 2228.7 152.834C2215.85 295.153 2189.14 435.878 2149.53 572.507C2109.78 709.185 2057.07 841.63 1992.3 967.662C1927.54 1093.69 1850.85 1213.26 1763.8 1324.26C1676.61 1435.31 1578.99 1537.65 1472.6 1629.46C1366.22 1721.26 1251.1 1802.66 1129.61 1872.03C1007.84 1941.5 879.827 1998.9 747.894 2043.83C877.794 1993.31 1002.64 1930.59 1120.1 1856.51C1237.62 1782.57 1347.63 1697.32 1448.15 1602.56C1548.82 1507.74 1640 1403.42 1720.16 1291.69C1800.45 1179.92 1869.8 1060.55 1926.95 936.054C1984.23 811.511 2029.4 681.657 2061.74 549.218C2094.17 416.593 2113.73 281.246 2120.02 145.482C2126.31 9.71827 2119.57 -126.24 2099.86 -260.101C2080.14 -393.962 2047.38 -525.54 2002.62 -652.753C1989.34 -690.508 2010.08 -730.615 2047.83 -743.894C2085.59 -757.173 2126.09 -738.739 2139.42 -700.847C2139.76 -699.893 2140.06 -699.076 2140.27 -698.073L2140.46 -697.986Z" fill="url(#paint26_linear_1_18)"/>
<path d="M2305 925.353C2242.65 1071.4 2166.49 1211.39 2077.88 1342.6C1989.11 1473.74 1887.93 1595.95 1776.12 1707.13C1664.31 1818.32 1541.92 1918.33 1411.53 2005.72C1280.98 2093.06 1142.49 2167.63 998.348 2228.23C854.211 2288.82 704.582 2335.5 552.264 2367.58C399.796 2399.6 244.695 2416.88 89.652 2419.02C-65.3906 2421.16 -220.429 2408.32 -372.332 2380.79C-524.537 2353.14 -673.456 2310.86 -816.848 2255.26C-671.212 2304.69 -521.197 2340.22 -369.36 2360.92C-217.578 2381.77 -64.1231 2387.74 88.0645 2378.94C240.402 2370.19 391.473 2346.69 538.475 2309.1C685.627 2271.56 828.915 2219.85 965.522 2155.15C1102.28 2090.51 1232.56 2012.78 1353.84 1923.77C1475.32 1834.66 1587.85 1734.13 1689.46 1623.83C1791.07 1513.53 1881.81 1393.83 1960.09 1266.69C2038.37 1139.56 2104 1005.1 2156.4 865.818C2171.95 824.486 2217.93 805.293 2259.26 820.848C2300.59 836.403 2321.76 880.712 2306.15 922.195C2305.76 923.248 2305.44 924.15 2304.9 925.148L2305 925.353Z" fill="url(#paint27_linear_1_18)"/>
<path d="M-203.067 230.717C-217.556 217.15 -230.744 202.22 -242.367 186.201C-253.977 170.167 -264.005 153.058 -272.285 135.171C-280.565 117.285 -287.08 98.633 -291.771 79.5804C-296.448 60.5125 -299.286 41.0566 -300.242 21.5353C-301.197 2.01398 -300.283 -17.5573 -297.539 -36.8202C-294.783 -56.0985 -290.181 -75.0555 -283.804 -93.3586C-277.427 -111.662 -269.29 -129.324 -259.562 -145.989C-249.807 -162.686 -238.474 -178.37 -225.813 -192.836C-237.846 -177.843 -248.433 -161.741 -257.356 -144.791C-266.294 -127.854 -273.555 -110.084 -279.028 -91.8315C-284.514 -73.5638 -288.211 -54.8137 -290.08 -35.9396C-291.963 -17.0502 -292.014 1.99137 -290.255 20.8035C-288.508 39.631 -284.948 58.2571 -279.678 76.3078C-274.405 94.3867 -267.407 111.903 -258.796 128.554C-250.184 145.205 -240.002 160.981 -228.416 175.611C-216.829 190.242 -203.841 203.699 -189.721 215.808C-185.531 219.402 -185.242 225.623 -188.836 229.813C-192.43 234.003 -198.54 234.594 -202.745 230.987C-202.852 230.897 -202.944 230.82 -203.039 230.715L-203.067 230.717Z" fill="url(#paint28_linear_1_18)"/>
<path d="M-364.355 120.342C-371.56 96.5995 -376.505 72.1941 -379.076 47.5893C-381.623 22.976 -381.786 -1.81309 -379.57 -26.3509C-377.353 -50.8887 -372.749 -75.1517 -365.919 -98.7083C-359.065 -122.274 -349.978 -145.109 -338.811 -166.839C-327.645 -188.568 -314.423 -209.183 -299.413 -228.321C-284.38 -247.468 -267.55 -265.113 -249.208 -280.941C-230.865 -296.769 -211.018 -310.803 -190.071 -322.764C-169.076 -334.742 -147.005 -344.638 -124.258 -352.385C-146.654 -343.675 -168.179 -332.861 -188.432 -320.088C-208.693 -307.34 -227.66 -292.641 -244.992 -276.303C-262.348 -259.956 -278.069 -241.969 -291.889 -222.706C-305.733 -203.434 -317.69 -182.853 -327.543 -161.389C-337.419 -139.916 -345.206 -117.527 -350.783 -94.693C-356.374 -71.8266 -359.746 -48.491 -360.831 -25.0834C-361.916 -1.67585 -360.753 21.7653 -357.354 44.8447C-353.956 67.9242 -348.306 90.61 -340.589 112.543C-338.3 119.053 -341.875 125.968 -348.385 128.257C-354.894 130.547 -361.877 127.368 -364.175 120.835C-364.235 120.671 -364.287 120.53 -364.323 120.357L-364.355 120.342Z" fill="url(#paint29_linear_1_18)"/>
<path d="M-91.9496 455.011C-120.947 448.253 -149.277 438.749 -176.389 426.657C-203.496 414.536 -229.355 399.832 -253.526 382.806C-277.697 365.781 -300.149 346.438 -320.532 325.206C-340.909 303.944 -359.188 280.799 -375.07 256.156C-390.952 231.514 -404.443 205.405 -415.326 178.324C-426.204 151.213 -434.443 123.136 -439.887 94.5764C-445.33 66.0173 -448.007 36.9712 -447.869 8.02548C-447.72 -20.9793 -444.761 -49.8542 -439.164 -78.142C-443.549 -49.6406 -445.226 -20.7833 -444.104 7.92763C-443.013 36.6333 -439.118 65.1631 -432.538 92.9783C-425.963 120.823 -416.703 147.953 -404.976 173.873C-393.254 199.823 -379.04 224.598 -362.646 247.716C-346.256 270.863 -327.662 292.389 -307.277 311.885C-286.869 331.416 -264.641 348.922 -240.966 364.093C-217.291 379.265 -192.233 392.121 -166.208 402.437C-140.184 412.753 -113.219 420.493 -85.7948 425.633C-77.6562 427.16 -72.6153 435.025 -74.1418 443.163C-75.6682 451.302 -83.1611 456.652 -91.3292 455.12C-91.536 455.084 -91.7133 455.053 -91.9149 454.987L-91.9496 455.011Z" fill="url(#paint30_linear_1_18)"/>
<path d="M-16.64 619.68C-56.28 617.52 -95.68 611.6 -134.08 602C-172.48 592.36 -209.84 579.04 -245.52 562.28C-281.2 545.52 -315.16 525.32 -346.84 502.16C-378.52 478.96 -407.88 452.8 -434.44 424.12C-461 395.44 -484.76 364.28 -505.32 331.24C-525.88 298.16 -543.2 263.2 -556.96 226.96C-570.72 190.72 -580.96 153.2 -587.48 115.16C-594 77.0397 -596.8 38.4397 -596 -0.000305176C-595.16 38.4397 -590.68 76.7197 -582.56 114.16C-574.48 151.6 -562.76 188.16 -547.68 223.16C-532.6 258.2 -514.16 291.68 -492.76 323C-471.36 354.36 -446.96 383.6 -420.08 410.16C-393.2 436.76 -363.8 460.72 -332.52 481.6C-301.2 502.52 -267.96 520.36 -233.36 534.8C-198.76 549.24 -162.88 560.32 -126.32 567.84C-89.76 575.36 -52.56 579.28 -15.36 579.68C-4.32004 579.8 4.11996 588.96 3.99996 600C3.87996 611.04 -4.72004 619.8 -15.8 619.68C-16.08 619.68 -16.32 619.68 -16.6 619.64L-16.64 619.68Z" fill="url(#paint31_linear_1_18)"/>
<path d="M-605.962 478.139C-635.744 438.446 -661.732 395.962 -683.394 351.478C-705.017 306.962 -722.28 260.486 -734.9 212.854C-747.519 165.222 -755.463 116.473 -758.741 67.5288C-761.98 18.5526 -760.52 -30.5804 -754.398 -79.057C-748.276 -127.534 -737.529 -175.322 -722.411 -221.556C-707.255 -267.823 -687.695 -312.498 -664.05 -354.792C-640.404 -397.086 -612.704 -437.038 -581.517 -473.846C-550.254 -510.718 -515.542 -544.414 -478.091 -574.534C-514.224 -542.843 -547.28 -507.796 -576.606 -469.938C-605.965 -432.119 -631.557 -391.521 -652.954 -348.959C-674.391 -306.365 -691.633 -261.807 -704.429 -216.15C-717.264 -170.461 -725.658 -123.603 -729.493 -76.5232C-733.366 -29.4114 -732.687 17.9922 -727.547 64.7213C-722.414 111.521 -712.789 157.684 -698.816 202.418C-684.842 247.152 -666.623 290.411 -644.448 331.462C-622.274 372.512 -596.138 411.283 -566.631 447.225C-557.876 457.893 -559.866 473.335 -570.533 482.09C-581.201 490.846 -596.499 489.65 -605.287 478.943C-605.512 478.675 -605.705 478.445 -605.892 478.145L-605.962 478.139Z" fill="url(#paint32_linear_1_18)"/>
<path d="M-720.734 807.511C-771.445 760.026 -817.604 707.769 -858.284 651.704C-898.918 595.586 -934.019 535.704 -962.997 473.1C-991.976 410.496 -1014.78 345.216 -1031.2 278.532C-1047.57 211.794 -1057.5 143.699 -1060.85 75.374C-1064.19 7.04946 -1060.99 -61.4501 -1051.39 -128.87C-1041.74 -196.344 -1025.63 -262.694 -1003.31 -326.754C-980.994 -390.815 -952.516 -452.633 -918.466 -510.962C-884.326 -569.399 -844.659 -624.295 -800.347 -674.927C-842.461 -622.451 -879.515 -566.094 -910.745 -506.769C-942.029 -447.488 -967.443 -385.293 -986.598 -321.41C-1005.8 -257.473 -1018.74 -191.847 -1025.28 -125.788C-1031.87 -59.6753 -1032.05 6.9703 -1025.89 72.8128C-1019.78 138.709 -1007.32 203.901 -988.873 267.078C-970.418 330.354 -945.925 391.661 -915.784 449.94C-885.644 508.218 -850.007 563.433 -809.455 614.639C-768.903 665.846 -723.443 712.946 -674.023 755.328C-659.358 767.908 -658.347 789.681 -670.927 804.346C-683.507 819.011 -704.889 821.081 -719.608 808.456C-719.983 808.141 -720.305 807.871 -720.635 807.503L-720.734 807.511Z" fill="url(#paint33_linear_1_18)"/>
<path d="M186.197 1281.41C103.922 1291.34 20.7784 1293.45 -61.6437 1287.64C-144.08 1281.74 -225.713 1267.9 -305.139 1246.38C-384.564 1224.85 -461.701 1195.64 -535.224 1159.51C-608.761 1123.3 -678.602 1080.16 -743.599 1030.83C-808.597 981.498 -868.738 926.052 -922.982 865.582C-977.24 805.029 -1025.52 739.438 -1066.94 669.924C-1108.37 600.41 -1143.02 526.989 -1170.21 451.15C-1197.43 375.147 -1217.18 296.809 -1229.47 217.494C-1213.81 296.214 -1190.72 373.286 -1160.46 447.311C-1130.28 521.35 -1092.93 592.262 -1049.24 658.748C-1005.54 725.316 -955.495 787.46 -900.148 844.089C-844.786 900.802 -784.026 952.068 -719.139 996.926C-654.237 1041.87 -585.112 1080.47 -513.238 1112.05C-441.267 1143.71 -366.466 1168.33 -290.102 1185.47C-213.737 1202.62 -135.959 1212.39 -58.0734 1214.6C19.812 1216.8 97.7082 1211.38 174.328 1198.72C197.068 1194.96 217.739 1210.73 221.494 1233.47C225.25 1256.21 210.745 1277.34 187.924 1281.11C187.348 1281.21 186.855 1281.3 186.264 1281.31L186.197 1281.41Z" fill="url(#paint34_linear_1_18)"/>
<path d="M-1322.08 433.232C-1348.02 347.759 -1365.82 259.899 -1375.07 171.322C-1384.24 82.7144 -1384.83 -6.52646 -1376.85 -94.8626C-1368.87 -183.199 -1352.3 -270.545 -1327.71 -355.349C-1303.04 -440.184 -1270.32 -522.391 -1230.12 -600.618C-1189.92 -678.845 -1142.32 -753.06 -1088.29 -821.956C-1034.17 -890.882 -973.581 -954.406 -907.548 -1011.39C-841.514 -1068.37 -770.065 -1118.89 -694.654 -1161.95C-619.074 -1205.07 -539.617 -1240.7 -457.727 -1268.59C-538.355 -1237.23 -615.843 -1198.3 -688.754 -1152.32C-761.696 -1106.42 -829.976 -1053.51 -892.372 -994.69C-954.852 -935.842 -1011.45 -871.089 -1061.2 -801.741C-1111.04 -732.362 -1154.08 -658.271 -1189.55 -580.999C-1225.11 -503.697 -1253.14 -423.098 -1273.22 -340.894C-1293.35 -258.575 -1305.49 -174.567 -1309.39 -90.2997C-1313.3 -6.03238 -1309.11 78.3556 -1296.88 161.442C-1284.64 244.528 -1264.3 326.197 -1236.52 405.157C-1228.28 428.591 -1241.15 453.485 -1264.59 461.727C-1288.02 469.969 -1313.16 458.527 -1321.43 435.008C-1321.65 434.416 -1321.83 433.909 -1321.96 433.286L-1322.08 433.232Z" fill="url(#paint35_linear_1_18)"/>
<path d="M-1359.56 888.632C-1414.6 800.143 -1461.19 706.509 -1498.36 609.484C-1535.45 512.399 -1563.06 412.01 -1580.74 310.054C-1598.43 208.097 -1606.12 104.66 -1604.02 1.66883C-1601.83 -101.383 -1589.79 -203.902 -1568.11 -304.195C-1546.43 -404.488 -1515.2 -502.494 -1475.11 -596.45C-1434.93 -690.467 -1385.84 -780.346 -1328.63 -864.498C-1271.42 -948.651 -1206.16 -1027.16 -1134.18 -1098.46C-1062.03 -1169.87 -983.244 -1234.01 -899.383 -1290.16C-980.775 -1230.48 -1056.34 -1163.21 -1124.62 -1089.38C-1192.96 -1015.64 -1253.93 -935.389 -1306.49 -850.265C-1359.13 -765.082 -1403.35 -675.022 -1438.48 -581.849C-1473.69 -488.617 -1499.83 -392.125 -1516.47 -294.336C-1533.19 -196.487 -1540.45 -97.1935 -1538.25 1.50481C-1536.08 100.349 -1524.39 198.685 -1503.35 294.826C-1482.3 390.967 -1452.1 484.801 -1413.23 574.738C-1374.35 664.674 -1326.77 750.566 -1271.62 831.159C-1255.26 855.078 -1262.24 887.018 -1286.16 903.383C-1310.08 919.747 -1341.87 914.444 -1358.29 890.438C-1358.72 889.836 -1359.08 889.32 -1359.41 888.658L-1359.56 888.632Z" fill="url(#paint36_linear_1_18)"/>
<path d="M-1189.33 1426.82C-1279.05 1348.5 -1361.26 1261.73 -1434.31 1168.12C-1507.28 1074.4 -1571 973.91 -1624.4 868.388C-1677.79 762.866 -1720.76 652.39 -1752.88 539.126C-1784.92 425.768 -1806.01 309.698 -1815.83 192.841C-1825.65 75.9849 -1824.26 -41.5628 -1811.84 -157.644C-1799.35 -273.821 -1775.72 -388.457 -1741.32 -499.544C-1706.91 -610.631 -1661.82 -718.243 -1606.98 -820.213C-1551.98 -922.372 -1487.31 -1018.8 -1414.42 -1108.19C-1483.43 -1015.77 -1543.54 -916.996 -1593.5 -813.49C-1643.55 -710.057 -1683.37 -601.981 -1712.36 -491.387C-1741.43 -380.699 -1759.68 -267.493 -1766.93 -153.926C-1774.26 -40.2644 -1770.59 73.9264 -1756.1 186.362C-1741.68 298.892 -1716.43 409.836 -1681.05 516.97C-1645.65 624.273 -1600.02 727.842 -1544.89 825.884C-1489.77 923.926 -1425.41 1016.39 -1352.87 1101.69C-1280.33 1187 -1199.63 1264.97 -1112.43 1334.62C-1086.55 1355.3 -1083.52 1392.54 -1104.19 1418.42C-1124.86 1444.3 -1161.38 1449.12 -1187.35 1428.37C-1188.01 1427.86 -1188.58 1427.41 -1189.16 1426.8L-1189.33 1426.82Z" fill="url(#paint37_linear_1_18)"/>
<path d="M976.974 1822.81C858.973 1882.62 735.399 1931.19 608.579 1967.47C481.693 2003.63 351.677 2027.44 220.777 2038.52C89.8769 2049.6 -41.7909 2047.89 -171.811 2033.84C-301.897 2019.67 -430.22 1993.09 -554.661 1954.57C-679.102 1916.06 -799.595 1865.72 -913.984 1804.62C-1028.44 1743.41 -1136.68 1671.37 -1236.78 1589.71C-1336.87 1508.05 -1428.94 1416.83 -1511.14 1317.91C-1593.48 1218.76 -1665.88 1112.02 -1727.62 999.75C-1661.14 1109.29 -1584.43 1212.3 -1498.61 1306.82C-1412.91 1401.41 -1318.16 1487.4 -1216.32 1563.28C-1114.42 1639.28 -1005.41 1705.18 -891.466 1759.91C-777.451 1814.76 -658.311 1858.49 -536.478 1890.36C-414.58 1922.34 -289.807 1942.5 -164.741 1950.64C-39.4924 1958.83 86.165 1954.93 210.082 1938.95C334 1922.97 456.012 1895.16 574.056 1855.95C692.099 1816.73 805.991 1766.06 914.018 1705.23C946.08 1687.18 985.701 1699.56 1003.75 1731.62C1021.8 1763.68 1011.58 1803.29 979.398 1821.41C978.59 1821.87 977.898 1822.27 977.023 1822.62L976.974 1822.81Z" fill="url(#paint38_linear_1_18)"/>
<path d="M-70.8201 2246.34C-214.515 2238.51 -357.34 2217.05 -496.54 2182.25C-635.74 2147.3 -771.17 2099.02 -900.51 2038.26C-1029.85 1977.51 -1152.96 1904.28 -1267.8 1820.33C-1382.64 1736.23 -1489.07 1641.4 -1585.35 1537.43C-1681.63 1433.47 -1767.76 1320.51 -1842.29 1200.74C-1916.82 1080.83 -1979.6 954.1 -2029.48 822.73C-2079.36 691.36 -2116.48 555.35 -2140.12 417.455C-2163.75 279.27 -2173.9 139.345 -2171 -0.000305176C-2167.96 139.345 -2151.72 278.11 -2122.28 413.83C-2092.99 549.55 -2050.51 682.08 -1995.84 808.955C-1941.18 935.975 -1874.33 1057.34 -1796.76 1170.87C-1719.18 1284.55 -1630.73 1390.55 -1533.29 1486.83C-1435.85 1583.25 -1329.28 1670.11 -1215.89 1745.8C-1102.35 1821.63 -981.855 1886.3 -856.43 1938.65C-731.005 1990.99 -600.94 2031.16 -468.41 2058.42C-335.88 2085.68 -201.03 2099.89 -66.1801 2101.34C-26.1601 2101.77 4.43494 2134.98 3.99994 2175C3.56494 2215.02 -27.6101 2246.77 -67.7751 2246.34C-68.7901 2246.34 -69.6601 2246.34 -70.6751 2246.19L-70.8201 2246.34Z" fill="url(#paint39_linear_1_18)"/>
<path d="M-1652.53 1845.74C-1768.45 1737.2 -1873.95 1617.76 -1966.93 1489.61C-2059.81 1361.34 -2140.04 1224.47 -2206.28 1081.37C-2272.52 938.278 -2324.64 789.065 -2362.16 636.645C-2399.59 484.102 -2422.29 328.454 -2429.93 172.284C-2437.58 16.1134 -2430.27 -140.457 -2408.31 -294.56C-2386.26 -448.786 -2349.44 -600.442 -2298.43 -746.867C-2247.41 -893.292 -2182.32 -1034.59 -2104.49 -1167.91C-2026.46 -1301.48 -1935.79 -1426.96 -1834.51 -1542.69C-1930.77 -1422.74 -2015.46 -1293.93 -2086.85 -1158.33C-2158.35 -1022.83 -2216.44 -880.67 -2260.22 -734.65C-2304.11 -588.509 -2333.69 -438.508 -2348.64 -287.515C-2363.7 -136.4 -2364.11 15.9324 -2350.04 166.43C-2336.07 317.049 -2307.58 466.059 -2265.42 610.464C-2223.24 755.095 -2167.26 895.225 -2098.36 1028.43C-2029.47 1161.64 -1948.02 1287.85 -1855.33 1404.89C-1762.63 1521.93 -1658.73 1629.59 -1545.77 1726.46C-1512.25 1755.22 -1509.94 1804.99 -1538.69 1838.51C-1567.44 1872.03 -1616.32 1876.76 -1649.96 1847.9C-1650.82 1847.18 -1651.55 1846.56 -1652.31 1845.72L-1652.53 1845.74Z" fill="url(#paint40_linear_1_18)"/>
<path d="M102.314 -157.902C112.289 -151.395 121.637 -143.947 130.174 -135.692C138.705 -127.428 146.413 -118.363 153.169 -108.657C159.925 -98.9505 165.718 -88.6084 170.475 -77.8392C175.225 -67.0597 178.929 -55.8591 181.528 -44.4238C184.126 -32.9886 185.625 -21.3289 186.011 -9.66091C186.391 2.01753 185.646 13.6984 183.785 25.1778C181.924 36.6573 178.957 47.9412 174.945 58.8023C170.921 69.6842 165.858 80.1328 159.884 89.9998C165.432 79.8868 170.01 69.2693 173.516 58.3241C177.033 47.3849 179.472 36.1284 180.804 24.7731C182.142 13.4074 182.374 1.94308 181.512 -9.4041C180.656 -20.7617 178.703 -32.0184 175.703 -42.9509C172.709 -53.8938 168.665 -64.5288 163.67 -74.6456C158.671 -84.7788 152.711 -94.3997 145.888 -103.341C139.064 -112.283 131.404 -120.544 123.034 -127.981C114.663 -135.419 105.586 -142.018 95.9816 -147.702C93.1313 -149.389 92.3125 -153.035 93.9997 -155.885C95.6869 -158.735 99.2352 -159.721 102.096 -158.028C102.169 -157.986 102.231 -157.95 102.298 -157.897L102.314 -157.902Z" fill="url(#paint41_linear_1_18)"/>
<path d="M-92.2743 -294.684C-73.2802 -300.448 -53.7559 -304.405 -34.0721 -306.461C-14.3814 -308.498 5.44988 -308.629 25.0801 -306.856C44.7104 -305.083 64.1207 -301.4 82.9661 -295.935C101.818 -290.453 120.087 -283.182 137.47 -274.249C154.854 -265.316 171.346 -254.739 186.656 -242.731C201.973 -230.704 216.09 -217.241 228.752 -202.566C241.415 -187.892 252.642 -172.015 262.211 -155.257C271.793 -138.461 279.71 -120.804 285.907 -102.606C278.939 -120.524 270.288 -137.743 260.07 -153.946C249.871 -170.155 238.112 -185.328 225.042 -199.194C211.964 -213.079 197.575 -225.656 182.164 -236.712C166.747 -247.786 150.282 -257.352 133.111 -265.234C115.932 -273.136 98.0213 -279.365 79.7538 -283.827C61.4607 -288.3 42.7922 -290.997 24.0661 -291.865C5.34008 -292.733 -13.4128 -291.803 -31.8764 -289.084C-50.3399 -286.365 -68.4886 -281.845 -86.0353 -275.672C-91.2429 -273.84 -96.7749 -276.7 -98.6064 -281.908C-100.438 -287.116 -97.8954 -292.702 -92.6689 -294.541C-92.5374 -294.588 -92.4246 -294.63 -92.2862 -294.659L-92.2743 -294.684Z" fill="url(#paint42_linear_1_18)"/>
<path d="M83.9576 -379.176C108.122 -373.545 131.73 -365.625 154.324 -355.548C176.913 -345.447 198.463 -333.194 218.605 -319.006C238.747 -304.818 257.457 -288.699 274.443 -271.005C291.424 -253.287 306.656 -233.999 319.891 -213.464C333.127 -192.929 344.369 -171.171 353.438 -148.603C362.503 -126.011 369.369 -102.613 373.905 -78.8142C378.441 -55.0149 380.672 -30.8098 380.557 -6.68837C380.433 17.4823 377.967 41.5447 373.303 65.1178C376.957 41.3667 378.355 17.3189 377.42 -6.60683C376.51 -30.5283 373.264 -54.3031 367.781 -77.4824C362.302 -100.686 354.586 -123.295 344.813 -144.895C335.045 -166.52 323.2 -187.165 309.538 -206.43C295.88 -225.72 280.384 -243.658 263.397 -259.905C246.39 -276.18 227.867 -290.768 208.138 -303.412C188.409 -316.055 167.527 -326.768 145.84 -335.365C124.153 -343.961 101.682 -350.411 78.8286 -354.695C72.0464 -355.967 67.8457 -362.521 69.1178 -369.303C70.3898 -376.085 76.6338 -380.544 83.4406 -379.267C83.613 -379.237 83.7607 -379.211 83.9287 -379.156L83.9576 -379.176Z" fill="url(#paint43_linear_1_18)"/>
<path d="M-342.077 -310.601C-321.726 -332.334 -299.33 -352.116 -275.302 -369.55C-251.251 -386.965 -225.588 -402.008 -198.758 -414.428C-171.927 -426.847 -143.95 -436.62 -115.371 -443.656C-86.7694 -450.673 -57.5854 -454.93 -28.3035 -456.363C0.978471 -457.796 30.3354 -456.425 59.2298 -452.309C88.1471 -448.174 116.583 -441.271 144.037 -431.706C171.492 -422.14 197.985 -409.936 222.984 -395.343C248.028 -380.711 271.555 -363.711 293.254 -344.72C270.764 -362.769 246.611 -378.65 221.186 -392.034C195.78 -405.441 169.125 -416.333 141.747 -424.542C114.345 -432.771 86.22 -438.317 57.9089 -441.121C29.5748 -443.944 1.01239 -444.022 -27.2058 -441.383C-55.447 -438.763 -83.3863 -433.422 -110.462 -425.517C-137.581 -417.608 -163.855 -407.111 -188.832 -394.194C-213.808 -381.276 -237.471 -366.003 -259.417 -348.624C-281.363 -331.244 -301.549 -311.761 -319.712 -290.582C-325.104 -284.297 -334.435 -283.863 -340.72 -289.255C-347.005 -294.646 -347.892 -303.81 -342.482 -310.118C-342.347 -310.279 -342.231 -310.417 -342.073 -310.558L-342.077 -310.601Z" fill="url(#paint44_linear_1_18)"/>
<path d="M-522.339 -327.715C-500.648 -360.964 -475.821 -392.126 -448.308 -420.581C-420.759 -449.016 -390.544 -474.711 -358.189 -497.231C-325.835 -519.751 -291.361 -539.061 -255.464 -554.916C-219.532 -570.752 -182.197 -583.099 -144.079 -591.76C-105.961 -600.422 -67.0961 -605.419 -28.2026 -606.704C10.7255 -607.97 49.6617 -605.489 87.9265 -599.286C126.191 -593.082 163.805 -583.19 200.008 -569.817C236.281 -556.403 271.11 -539.528 304 -519.615C270.29 -538.108 234.898 -553.368 198.414 -565.056C161.95 -576.779 124.428 -584.909 86.5774 -589.349C48.6918 -593.809 10.4773 -594.58 -27.3466 -591.707C-65.2051 -588.854 -102.728 -582.343 -139.169 -572.344C-175.646 -562.365 -211.096 -548.884 -244.818 -532.235C-278.595 -515.571 -310.665 -495.704 -340.471 -472.96C-370.276 -450.215 -397.812 -424.682 -422.604 -396.781C-447.397 -368.879 -469.392 -338.623 -488.338 -306.606C-493.962 -297.105 -506.115 -294.376 -515.616 -300C-525.117 -305.624 -528.403 -317.452 -522.759 -326.987C-522.619 -327.23 -522.499 -327.438 -522.324 -327.66L-522.339 -327.715Z" fill="url(#paint45_linear_1_18)"/>
<path d="M-105.1 -767.312C-55.834 -773.258 -6.04725 -774.522 43.3073 -771.04C92.6705 -767.508 141.552 -759.22 189.113 -746.333C236.673 -733.446 282.863 -715.951 326.888 -694.318C370.922 -672.635 412.743 -646.804 451.664 -617.264C490.585 -587.724 526.597 -554.523 559.079 -518.313C591.568 -482.054 620.478 -442.777 645.283 -401.152C670.088 -359.527 690.837 -315.562 707.121 -270.15C723.421 -224.639 735.247 -177.73 742.606 -130.236C733.228 -177.374 719.404 -223.525 701.281 -267.851C683.208 -312.186 660.845 -354.648 634.684 -394.46C608.515 -434.321 578.548 -471.533 545.406 -505.443C512.255 -539.403 475.872 -570.101 437.017 -596.962C398.154 -623.872 356.761 -646.986 313.723 -665.9C270.627 -684.854 225.836 -699.6 180.108 -709.866C134.381 -720.131 87.8074 -725.983 41.1694 -727.304C-5.46858 -728.626 -52.113 -725.376 -97.9934 -717.794C-111.61 -715.546 -123.988 -724.99 -126.236 -738.606C-128.485 -752.222 -119.8 -764.873 -106.134 -767.13C-105.789 -767.191 -105.494 -767.243 -105.141 -767.255L-105.1 -767.312Z" fill="url(#paint46_linear_1_18)"/>
<path d="M495.572 -789.508C545.446 -756.972 592.188 -719.732 634.871 -678.461C677.524 -637.138 716.066 -591.815 749.846 -543.283C783.625 -494.751 812.591 -443.041 836.374 -389.195C860.128 -335.297 878.647 -279.295 891.64 -222.118C904.632 -164.942 912.128 -106.644 914.056 -48.3035C915.954 10.0886 912.233 68.493 902.928 125.89C893.623 183.287 878.785 239.707 858.725 294.013C838.604 348.422 813.292 400.665 783.423 450C811.161 399.435 834.052 346.348 851.584 291.622C869.167 236.926 881.363 180.643 888.023 123.866C894.714 67.0381 895.869 9.71639 891.56 -47.0195C887.28 -103.807 877.514 -160.091 862.516 -214.754C847.548 -269.468 827.326 -322.643 802.352 -373.227C777.356 -423.893 747.556 -471.998 713.439 -516.706C679.323 -561.414 641.023 -602.717 599.17 -639.906C557.317 -677.095 511.933 -710.087 463.909 -738.507C449.658 -746.942 445.564 -765.172 454 -779.423C462.436 -793.674 480.177 -798.604 494.481 -790.138C494.844 -789.928 495.156 -789.748 495.49 -789.486L495.572 -789.508Z" fill="url(#paint47_linear_1_18)"/>
<path d="M-332.959 -1031.39C-266.48 -1051.57 -198.145 -1065.42 -129.251 -1072.61C-60.334 -1079.74 9.07554 -1080.2 77.7814 -1073.99C146.487 -1067.79 214.424 -1054.9 280.382 -1035.77C346.365 -1016.58 410.304 -991.137 471.147 -959.871C531.99 -928.605 589.712 -891.585 643.298 -849.558C696.908 -807.465 746.315 -760.341 790.633 -708.982C834.952 -657.622 874.248 -602.051 907.739 -543.398C941.277 -484.614 968.985 -422.813 990.677 -359.121C966.288 -421.832 936.009 -482.1 900.246 -538.809C864.55 -595.541 823.394 -648.648 777.647 -697.178C731.876 -745.774 681.513 -789.794 627.576 -828.49C573.614 -867.251 515.988 -900.731 455.888 -928.32C395.764 -955.974 333.076 -977.778 269.139 -993.392C205.113 -1009.05 139.774 -1018.49 74.2325 -1021.53C8.69126 -1024.56 -56.9438 -1021.31 -121.566 -1011.79C-186.189 -1002.28 -249.709 -986.457 -311.122 -964.85C-329.349 -958.439 -348.711 -968.451 -355.122 -986.677C-361.532 -1004.9 -352.633 -1024.46 -334.34 -1030.89C-333.88 -1031.06 -333.485 -1031.2 -333.001 -1031.3L-332.959 -1031.39Z" fill="url(#paint48_linear_1_18)"/>
<path d="M-1196.83 -482.919C-1164.29 -559.135 -1124.55 -632.196 -1078.3 -700.667C-1031.98 -769.11 -979.175 -832.886 -920.824 -890.91C-862.473 -948.934 -798.603 -1001.13 -730.553 -1046.74C-662.426 -1092.32 -590.148 -1131.23 -514.926 -1162.86C-439.704 -1194.48 -361.616 -1218.84 -282.126 -1235.58C-202.557 -1252.29 -121.613 -1261.31 -40.7 -1262.43C40.2129 -1263.54 121.123 -1256.84 200.398 -1242.47C279.83 -1228.05 357.547 -1205.98 432.38 -1176.97C356.376 -1202.76 278.087 -1221.31 198.847 -1232.11C119.636 -1242.99 39.5514 -1246.1 -39.8715 -1241.51C-119.373 -1236.95 -198.213 -1224.68 -274.93 -1205.06C-351.724 -1185.47 -426.503 -1158.48 -497.794 -1124.72C-569.165 -1090.98 -637.155 -1050.42 -700.447 -1003.97C-763.845 -957.466 -822.572 -904.999 -875.601 -847.437C-928.63 -789.875 -975.982 -727.403 -1016.84 -661.056C-1057.69 -594.709 -1091.94 -524.536 -1119.28 -451.849C-1127.4 -430.279 -1151.39 -420.263 -1172.97 -428.38C-1194.54 -436.498 -1205.58 -459.622 -1197.43 -481.271C-1197.23 -481.82 -1197.06 -482.291 -1196.78 -482.812L-1196.83 -482.919Z" fill="url(#paint49_linear_1_18)"/>
<path d="M291.848 -1365.03C378.839 -1344.76 463.83 -1316.25 545.166 -1279.97C626.487 -1243.61 704.066 -1199.5 776.578 -1148.42C849.09 -1097.34 916.447 -1039.31 977.595 -975.619C1038.73 -911.834 1093.56 -842.397 1141.21 -768.471C1188.86 -694.544 1229.33 -616.216 1261.98 -534.972C1294.61 -453.64 1319.33 -369.408 1335.66 -283.73C1351.99 -198.053 1360.02 -110.915 1359.61 -24.0775C1359.16 62.9368 1350.28 149.561 1333.49 234.425C1346.65 148.921 1351.68 62.3488 1348.31 -23.784C1345.04 -109.901 1333.35 -195.491 1313.61 -278.936C1293.89 -362.47 1266.11 -443.86 1230.93 -521.621C1195.76 -599.47 1153.12 -673.794 1103.94 -743.148C1054.77 -812.591 998.984 -877.169 937.832 -935.657C876.606 -994.249 809.922 -1046.77 738.897 -1092.28C667.872 -1137.8 592.697 -1176.37 514.625 -1207.31C436.553 -1238.26 355.656 -1261.48 273.384 -1276.9C248.968 -1281.48 233.845 -1305.07 238.425 -1329.49C243.004 -1353.91 265.483 -1369.96 289.987 -1365.36C290.607 -1365.25 291.139 -1365.16 291.744 -1364.96L291.848 -1365.03Z" fill="url(#paint50_linear_1_18)"/>
<path d="M-83.7992 -1625.19C20.354 -1628.61 124.74 -1622.15 227.353 -1605.83C329.975 -1589.4 430.719 -1563.12 527.857 -1527.45C624.995 -1491.79 718.422 -1446.74 806.564 -1393.42C894.716 -1340 977.477 -1278.31 1053.49 -1209.39C1129.51 -1140.46 1198.77 -1064.42 1260.1 -982.721C1321.43 -900.92 1374.72 -813.462 1418.99 -721.842C1463.27 -630.222 1498.63 -534.449 1524.38 -436.466C1550.15 -338.274 1566.3 -237.975 1573.01 -137.271C1562.02 -237.599 1541.54 -336.677 1511.74 -432.725C1482.05 -528.783 1443.04 -621.706 1395.59 -709.782C1348.14 -797.962 1292.26 -881.293 1229.14 -958.3C1166 -1035.41 1095.5 -1106.29 1019.14 -1169.6C942.759 -1233.01 860.396 -1288.94 773.821 -1336.38C687.133 -1383.92 596.128 -1422.97 502.345 -1452.81C408.562 -1482.66 312.201 -1503.42 214.875 -1514.72C117.55 -1526.02 19.3749 -1527.76 -77.9951 -1520.3C-106.892 -1518.09 -131.059 -1540.11 -133.271 -1569.01C-135.483 -1597.9 -114.998 -1622.78 -85.9958 -1625C-85.2636 -1625.06 -84.636 -1625.12 -83.8946 -1625.08L-83.7992 -1625.19Z" fill="url(#paint51_linear_1_18)"/>
<path d="M-634.998 -1746.87C-522.31 -1785.41 -406.063 -1813.22 -288.463 -1829.67C-170.818 -1846.01 -51.9299 -1850.95 66.151 -1844.43C184.232 -1837.91 301.395 -1819.88 415.542 -1791.06C529.734 -1762.14 640.799 -1722.37 746.909 -1672.44C853.018 -1622.51 954.126 -1562.54 1048.45 -1493.75C1142.81 -1424.84 1230.28 -1347.06 1309.28 -1261.72C1388.28 -1176.38 1458.93 -1083.52 1519.81 -985.041C1580.79 -886.335 1631.96 -782.114 1672.93 -674.292C1627.39 -780.271 1571.91 -881.714 1507.25 -976.73C1442.7 -1071.79 1369.01 -1160.31 1287.73 -1240.72C1206.41 -1321.24 1117.49 -1393.64 1022.77 -1456.71C928.001 -1519.89 827.271 -1573.8 722.654 -1617.47C617.992 -1661.25 509.288 -1694.86 398.816 -1717.78C288.187 -1740.78 175.68 -1753.04 63.21 -1754.32C-49.2597 -1755.61 -161.514 -1746.1 -271.658 -1725.93C-381.803 -1705.76 -489.682 -1674.86 -593.605 -1634.17C-624.449 -1622.09 -658.219 -1638.09 -670.292 -1668.93C-682.365 -1699.77 -668.289 -1733.81 -637.334 -1745.92C-636.555 -1746.24 -635.888 -1746.51 -635.064 -1746.71L-634.998 -1746.87Z" fill="url(#paint52_linear_1_18)"/>
<path d="M-1903.98 -1187.97C-1825.35 -1308.49 -1735.35 -1421.45 -1635.61 -1524.61C-1535.75 -1627.68 -1426.22 -1720.83 -1308.93 -1802.46C-1191.65 -1884.1 -1066.68 -1954.1 -936.555 -2011.57C-806.302 -2068.98 -670.962 -2113.73 -532.786 -2145.13C-394.609 -2176.53 -253.722 -2194.64 -112.733 -2199.3C28.3811 -2203.89 169.525 -2194.9 308.235 -2172.41C446.944 -2149.92 583.293 -2114.06 714.531 -2065.59C846.02 -2016.96 972.273 -1955.79 1091.5 -1883.61C969.301 -1950.64 841.007 -2005.96 708.752 -2048.33C576.571 -2090.82 440.554 -2120.29 303.344 -2136.39C166.009 -2152.56 27.4815 -2155.35 -109.63 -2144.94C-246.867 -2134.6 -382.887 -2110.99 -514.988 -2074.75C-647.214 -2038.57 -775.72 -1989.71 -897.965 -1929.35C-1020.41 -1868.94 -1136.66 -1796.93 -1244.71 -1714.48C-1352.75 -1632.03 -1452.57 -1539.47 -1542.44 -1438.33C-1632.31 -1337.18 -1712.04 -1227.51 -1780.72 -1111.45C-1801.11 -1077.01 -1845.16 -1067.11 -1879.61 -1087.5C-1914.05 -1107.89 -1925.96 -1150.76 -1905.5 -1185.33C-1904.99 -1186.21 -1904.56 -1186.96 -1903.92 -1187.77L-1903.98 -1187.97Z" fill="url(#paint53_linear_1_18)"/>
<path d="M-766.191 -2357.47C-614.239 -2403.58 -458.044 -2435.23 -300.574 -2451.68C-143.049 -2467.98 15.6017 -2469.03 172.644 -2454.84C329.686 -2440.66 484.969 -2411.19 635.731 -2367.48C786.548 -2323.62 932.695 -2265.46 1071.76 -2193.99C1210.83 -2122.53 1342.77 -2037.91 1465.25 -1941.85C1587.79 -1845.63 1700.72 -1737.92 1802.02 -1620.53C1903.32 -1503.14 1993.14 -1376.12 2069.69 -1242.05C2146.35 -1107.69 2209.68 -966.43 2259.26 -820.848C2203.52 -964.186 2134.31 -1101.94 2052.56 -1231.56C1970.97 -1361.24 1876.9 -1482.62 1772.34 -1593.55C1667.72 -1704.63 1552.6 -1805.24 1429.32 -1893.69C1305.98 -1982.29 1174.26 -2058.81 1036.89 -2121.87C899.46 -2185.08 756.173 -2234.92 610.033 -2270.61C463.688 -2306.4 314.34 -2327.98 164.532 -2334.92C14.7233 -2341.86 -135.3 -2334.42 -283.008 -2312.67C-430.717 -2290.92 -575.906 -2254.76 -716.279 -2205.37C-757.94 -2190.72 -802.196 -2213.6 -816.849 -2255.26C-831.501 -2296.92 -811.16 -2341.62 -769.349 -2356.32C-768.296 -2356.71 -767.394 -2357.03 -766.287 -2357.27L-766.191 -2357.47Z" fill="url(#paint54_linear_1_18)"/>
<path d="M3.99976 3000C1660.85 3000 3004 1656.85 3004 -0.000244141C3004 -1656.85 1660.85 -3000 3.99976 -3000C-1652.85 -3000 -2996 -1656.85 -2996 -0.000244141C-2996 1656.85 -1652.85 3000 3.99976 3000Z" fill="url(#paint55_radial_1_18)" fill-opacity="0.1"/>
<g style="mix-blend-mode:hard-light" opacity="0.7">
<rect x="-81" y="-168" width="2190" height="1686" fill="black"/>
</g>
<g style="mix-blend-mode:hue">
<rect x="-52" y="-51" width="2090" height="1569" fill="#003E59"/>
</g>
</g>
<defs>
<filter id="filter0_d_1_18" x="0" y="0" width="2008" height="1508" filterUnits="userSpaceOnUse" color-interpolation-filters="sRGB">
<feFlood flood-opacity="0" result="BackgroundImageFix"/>
<feColorMatrix in="SourceAlpha" type="matrix" values="0 0 0 0 0 0 0 0 0 0 0 0 0 0 0 0 0 0 127 0" result="hardAlpha"/>
<feOffset dy="4"/>
<feGaussianBlur stdDeviation="2"/>
<feComposite in2="hardAlpha" operator="out"/>
<feColorMatrix type="matrix" values="0 0 0 0 0 0 0 0 0 0 0 0 0 0 0 0 0 0 0.25 0"/>
<feBlend mode="normal" in2="BackgroundImageFix" result="effect1_dropShadow_1_18"/>
<feBlend mode="normal" in="SourceGraphic" in2="effect1_dropShadow_1_18" result="shape"/>
</filter>
<radialGradient id="paint0_radial_1_18" cx="0" cy="0" r="1" gradientUnits="userSpaceOnUse" gradientTransform="translate(3.99976 -0.000244141) scale(3000)">
<stop stop-color="#FFBB33"/>
<stop offset="1" stop-color="#EE5522"/>
</radialGradient>
<radialGradient id="paint1_radial_1_18" cx="0" cy="0" r="1" gradientUnits="userSpaceOnUse" gradientTransform="translate(3.99976 -0.000244141) scale(2000)">
<stop stop-color="#FFBB33"/>
<stop offset="1" stop-color="#EE5522"/>
</radialGradient>
<radialGradient id="paint2_radial_1_18" cx="0" cy="0" r="1" gradientUnits="userSpaceOnUse" gradientTransform="translate(3.99976 -0.000244141) scale(1800)">
<stop stop-color="#FFBB33"/>
<stop offset="1" stop-color="#EE5522"/>
</radialGradient>
<radialGradient id="paint3_radial_1_18" cx="0" cy="0" r="1" gradientUnits="userSpaceOnUse" gradientTransform="translate(3.99976 -0.000244141) scale(1700)">
<stop stop-color="#FFBB33"/>
<stop offset="1" stop-color="#EE5522"/>
</radialGradient>
<radialGradient id="paint4_radial_1_18" cx="0" cy="0" r="1" gradientUnits="userSpaceOnUse" gradientTransform="translate(3.99976 -0.000244141) scale(1651)">
<stop stop-color="#FFBB33"/>
<stop offset="1" stop-color="#EE5522"/>
</radialGradient>
<radialGradient id="paint5_radial_1_18" cx="0" cy="0" r="1" gradientUnits="userSpaceOnUse" gradientTransform="translate(3.99976 -0.000244141) scale(1450)">
<stop stop-color="#FFBB33"/>
<stop offset="1" stop-color="#EE5522"/>
</radialGradient>
<radialGradient id="paint6_radial_1_18" cx="0" cy="0" r="1" gradientUnits="userSpaceOnUse" gradientTransform="translate(3.99976 -0.000244141) scale(1250)">
<stop stop-color="#FFBB33"/>
<stop offset="1" stop-color="#EE5522"/>
</radialGradient>
<radialGradient id="paint7_radial_1_18" cx="0" cy="0" r="1" gradientUnits="userSpaceOnUse" gradientTransform="translate(3.99976 -0.000244141) scale(1175)">
<stop stop-color="#FFBB33"/>
<stop offset="1" stop-color="#EE5522"/>
</radialGradient>
<radialGradient id="paint8_radial_1_18" cx="0" cy="0" r="1" gradientUnits="userSpaceOnUse" gradientTransform="translate(3.99976 -0.000244141) scale(900)">
<stop stop-color="#FFBB33"/>
<stop offset="1" stop-color="#EE5522"/>
</radialGradient>
<radialGradient id="paint9_radial_1_18" cx="0" cy="0" r="1" gradientUnits="userSpaceOnUse" gradientTransform="translate(3.99976 -0.000244141) scale(750)">
<stop stop-color="#FFBB33"/>
<stop offset="1" stop-color="#EE5522"/>
</radialGradient>
<radialGradient id="paint10_radial_1_18" cx="0" cy="0" r="1" gradientUnits="userSpaceOnUse" gradientTransform="translate(3.99976 -0.000244141) scale(500)">
<stop stop-color="#FFBB33"/>
<stop offset="1" stop-color="#EE5522"/>
</radialGradient>
<radialGradient id="paint11_radial_1_18" cx="0" cy="0" r="1" gradientUnits="userSpaceOnUse" gradientTransform="translate(3.99976 -0.000244141) scale(380)">
<stop stop-color="#FFBB33"/>
<stop offset="1" stop-color="#EE5522"/>
</radialGradient>
<radialGradient id="paint12_radial_1_18" cx="0" cy="0" r="1" gradientUnits="userSpaceOnUse" gradientTransform="translate(3.99976 -0.000244141) scale(250)">
<stop stop-color="#FFBB33"/>
<stop offset="1" stop-color="#EE5522"/>
</radialGradient>
<linearGradient id="paint13_linear_1_18" x1="-80.5724" y1="30.7816" x2="-16.9567" y2="205.564" gradientUnits="userSpaceOnUse">
<stop stop-color="#F7882B"/>
<stop offset="1" stop-color="#EE5522"/>
</linearGradient>
<linearGradient id="paint14_linear_1_18" x1="-47.3031" y1="140.954" x2="244.002" y2="246.98" gradientUnits="userSpaceOnUse">
<stop stop-color="#F7882B"/>
<stop offset="1" stop-color="#EE5522"/>
</linearGradient>
<linearGradient id="paint15_linear_1_18" x1="-139.633" y1="120.522" x2="109.447" y2="417.365" gradientUnits="userSpaceOnUse">
<stop stop-color="#F7882B"/>
<stop offset="1" stop-color="#EE5522"/>
</linearGradient>
<linearGradient id="paint16_linear_1_18" x1="43.0706" y1="221.582" x2="501.006" y2="140.835" gradientUnits="userSpaceOnUse">
<stop stop-color="#F7882B"/>
<stop offset="1" stop-color="#EE5522"/>
</linearGradient>
<linearGradient id="paint17_linear_1_18" x1="106.606" y1="281.907" x2="689.215" y2="69.855" gradientUnits="userSpaceOnUse">
<stop stop-color="#F7882B"/>
<stop offset="1" stop-color="#EE5522"/>
</linearGradient>
<linearGradient id="paint18_linear_1_18" x1="-183.5" y1="324.759" x2="487.67" y2="712.259" gradientUnits="userSpaceOnUse">
<stop stop-color="#F7882B"/>
<stop offset="1" stop-color="#EE5522"/>
</linearGradient>
<linearGradient id="paint19_linear_1_18" x1="-418.862" y1="153.909" x2="-100.783" y2="1027.82" gradientUnits="userSpaceOnUse">
<stop stop-color="#F7882B"/>
<stop offset="1" stop-color="#EE5522"/>
</linearGradient>
<linearGradient id="paint20_linear_1_18" x1="-175.561" y1="493.338" x2="844.006" y2="864.43" gradientUnits="userSpaceOnUse">
<stop stop-color="#F7882B"/>
<stop offset="1" stop-color="#EE5522"/>
</linearGradient>
<linearGradient id="paint21_linear_1_18" x1="317.125" y1="542.348" x2="1437.98" y2="-104.777" gradientUnits="userSpaceOnUse">
<stop stop-color="#F7882B"/>
<stop offset="1" stop-color="#EE5522"/>
</linearGradient>
<linearGradient id="paint22_linear_1_18" x1="-513.08" y1="433.881" x2="383.609" y2="1502.51" gradientUnits="userSpaceOnUse">
<stop stop-color="#F7882B"/>
<stop offset="1" stop-color="#EE5522"/>
</linearGradient>
<linearGradient id="paint23_linear_1_18" x1="-447.692" y1="645.082" x2="885.478" y2="1578.58" gradientUnits="userSpaceOnUse">
<stop stop-color="#F7882B"/>
<stop offset="1" stop-color="#EE5522"/>
</linearGradient>
<linearGradient id="paint24_linear_1_18" x1="-274.116" y1="855.951" x2="1494.85" y2="1430.72" gradientUnits="userSpaceOnUse">
<stop stop-color="#F7882B"/>
<stop offset="1" stop-color="#EE5522"/>
</linearGradient>
<linearGradient id="paint25_linear_1_18" x1="769.853" y1="642.627" x2="2097.95" y2="-940.136" gradientUnits="userSpaceOnUse">
<stop stop-color="#F7882B"/>
<stop offset="1" stop-color="#EE5522"/>
</linearGradient>
<linearGradient id="paint26_linear_1_18" x1="375.947" y1="1021.92" x2="2487.91" y2="253.225" gradientUnits="userSpaceOnUse">
<stop stop-color="#F7882B"/>
<stop offset="1" stop-color="#EE5522"/>
</linearGradient>
<linearGradient id="paint27_linear_1_18" x1="-406.424" y1="1127.63" x2="1924.01" y2="1975.84" gradientUnits="userSpaceOnUse">
<stop stop-color="#F7882B"/>
<stop offset="1" stop-color="#EE5522"/>
</linearGradient>
<linearGradient id="paint28_linear_1_18" x1="-110.907" y1="-96.4184" x2="-310.171" y2="141.055" gradientUnits="userSpaceOnUse">
<stop stop-color="#F7882B"/>
<stop offset="1" stop-color="#EE5522"/>
</linearGradient>
<linearGradient id="paint29_linear_1_18" x1="-60.1288" y1="-176.193" x2="-424.26" y2="-43.6598" gradientUnits="userSpaceOnUse">
<stop stop-color="#F7882B"/>
<stop offset="1" stop-color="#EE5522"/>
</linearGradient>
<linearGradient id="paint30_linear_1_18" x1="-217.582" y1="-39.0711" x2="-298.328" y2="418.864" gradientUnits="userSpaceOnUse">
<stop stop-color="#F7882B"/>
<stop offset="1" stop-color="#EE5522"/>
</linearGradient>
<linearGradient id="paint31_linear_1_18" x1="-296" y1="-0.000305176" x2="-296" y2="620" gradientUnits="userSpaceOnUse">
<stop stop-color="#F7882B"/>
<stop offset="1" stop-color="#EE5522"/>
</linearGradient>
<linearGradient id="paint32_linear_1_18" x1="-237.045" y1="-287.267" x2="-830.73" y2="210.893" gradientUnits="userSpaceOnUse">
<stop stop-color="#F7882B"/>
<stop offset="1" stop-color="#EE5522"/>
</linearGradient>
<linearGradient id="paint33_linear_1_18" x1="-398.173" y1="-337.464" x2="-1095.6" y2="493.694" gradientUnits="userSpaceOnUse">
<stop stop-color="#F7882B"/>
<stop offset="1" stop-color="#EE5522"/>
</linearGradient>
<linearGradient id="paint34_linear_1_18" x1="-612.736" y1="108.747" x2="-387.992" y2="1383.33" gradientUnits="userSpaceOnUse">
<stop stop-color="#F7882B"/>
<stop offset="1" stop-color="#EE5522"/>
</linearGradient>
<linearGradient id="paint35_linear_1_18" x1="-226.864" y1="-634.293" x2="-1537.73" y2="-157.175" gradientUnits="userSpaceOnUse">
<stop stop-color="#F7882B"/>
<stop offset="1" stop-color="#EE5522"/>
</linearGradient>
<linearGradient id="paint36_linear_1_18" x1="-447.692" y1="-645.083" x2="-1780.86" y2="288.413" gradientUnits="userSpaceOnUse">
<stop stop-color="#F7882B"/>
<stop offset="1" stop-color="#EE5522"/>
</linearGradient>
<linearGradient id="paint37_linear_1_18" x1="-705.21" y1="-554.096" x2="-1850.34" y2="911.604" gradientUnits="userSpaceOnUse">
<stop stop-color="#F7882B"/>
<stop offset="1" stop-color="#EE5522"/>
</linearGradient>
<linearGradient id="paint38_linear_1_18" x1="-861.809" y1="499.875" x2="171.266" y2="2289.21" gradientUnits="userSpaceOnUse">
<stop stop-color="#F7882B"/>
<stop offset="1" stop-color="#EE5522"/>
</linearGradient>
<linearGradient id="paint39_linear_1_18" x1="-1083.5" y1="-0.000305176" x2="-1083.5" y2="2247.5" gradientUnits="userSpaceOnUse">
<stop stop-color="#F7882B"/>
<stop offset="1" stop-color="#EE5522"/>
</linearGradient>
<linearGradient id="paint40_linear_1_18" x1="-915.253" y1="-771.345" x2="-2509.37" y2="1128.44" gradientUnits="userSpaceOnUse">
<stop stop-color="#F7882B"/>
<stop offset="1" stop-color="#EE5522"/>
</linearGradient>
<linearGradient id="paint41_linear_1_18" x1="81.942" y1="44.9998" x2="174.942" y2="-116.081" gradientUnits="userSpaceOnUse">
<stop stop-color="#F7882B"/>
<stop offset="1" stop-color="#EE5522"/>
</linearGradient>
<linearGradient id="paint42_linear_1_18" x1="144.953" y1="-51.3033" x2="38.9273" y2="-342.608" gradientUnits="userSpaceOnUse">
<stop stop-color="#F7882B"/>
<stop offset="1" stop-color="#EE5522"/>
</linearGradient>
<linearGradient id="paint43_linear_1_18" x1="188.651" y1="32.5588" x2="255.94" y2="-349.054" gradientUnits="userSpaceOnUse">
<stop stop-color="#F7882B"/>
<stop offset="1" stop-color="#EE5522"/>
</linearGradient>
<linearGradient id="paint44_linear_1_18" x1="148.627" y1="-172.36" x2="-207.584" y2="-471.256" gradientUnits="userSpaceOnUse">
<stop stop-color="#F7882B"/>
<stop offset="1" stop-color="#EE5522"/>
</linearGradient>
<linearGradient id="paint45_linear_1_18" x1="154" y1="-259.808" x2="-382.936" y2="-569.808" gradientUnits="userSpaceOnUse">
<stop stop-color="#F7882B"/>
<stop offset="1" stop-color="#EE5522"/>
</linearGradient>
<linearGradient id="paint46_linear_1_18" x1="373.303" y1="-65.1183" x2="238.725" y2="-828.344" gradientUnits="userSpaceOnUse">
<stop stop-color="#F7882B"/>
<stop offset="1" stop-color="#EE5522"/>
</linearGradient>
<linearGradient id="paint47_linear_1_18" x1="393.711" y1="225" x2="858.711" y2="-580.404" gradientUnits="userSpaceOnUse">
<stop stop-color="#F7882B"/>
<stop offset="1" stop-color="#EE5522"/>
</linearGradient>
<linearGradient id="paint48_linear_1_18" x1="497.338" y1="-179.561" x2="126.246" y2="-1199.13" gradientUnits="userSpaceOnUse">
<stop stop-color="#F7882B"/>
<stop offset="1" stop-color="#EE5522"/>
</linearGradient>
<linearGradient id="paint49_linear_1_18" x1="218.19" y1="-588.483" x2="-998.007" y2="-1031.14" gradientUnits="userSpaceOnUse">
<stop stop-color="#F7882B"/>
<stop offset="1" stop-color="#EE5522"/>
</linearGradient>
<linearGradient id="paint50_linear_1_18" x1="668.745" y1="117.212" x2="910.984" y2="-1256.59" gradientUnits="userSpaceOnUse">
<stop stop-color="#F7882B"/>
<stop offset="1" stop-color="#EE5522"/>
</linearGradient>
<linearGradient id="paint51_linear_1_18" x1="788.503" y1="-68.6355" x2="646.657" y2="-1689.94" gradientUnits="userSpaceOnUse">
<stop stop-color="#F7882B"/>
<stop offset="1" stop-color="#EE5522"/>
</linearGradient>
<linearGradient id="paint52_linear_1_18" x1="838.465" y1="-337.146" x2="141.697" y2="-2061.71" gradientUnits="userSpaceOnUse">
<stop stop-color="#F7882B"/>
<stop offset="1" stop-color="#EE5522"/>
</linearGradient>
<linearGradient id="paint53_linear_1_18" x1="547.75" y1="-941.803" x2="-1398.64" y2="-2065.55" gradientUnits="userSpaceOnUse">
<stop stop-color="#F7882B"/>
<stop offset="1" stop-color="#EE5522"/>
</linearGradient>
<linearGradient id="paint54_linear_1_18" x1="1131.63" y1="-410.424" x2="283.421" y2="-2740.86" gradientUnits="userSpaceOnUse">
<stop stop-color="#F7882B"/>
<stop offset="1" stop-color="#EE5522"/>
</linearGradient>
<radialGradient id="paint55_radial_1_18" cx="0" cy="0" r="1" gradientUnits="userSpaceOnUse" gradientTransform="translate(3.99976 -0.000244141) scale(3000)">
<stop stop-color="#FFBB33"/>
<stop offset="1" stop-color="#EE5522"/>
</radialGradient>
<clipPath id="clip0_1_18">
<rect width="2000" height="1500" fill="white" transform="translate(4)"/>
</clipPath>
</defs>
</svg>
