<svg width="2133" height="1745" viewBox="0 0 2133 1745" fill="none" xmlns="http://www.w3.org/2000/svg">
<rect width="2133" height="1745" fill="#1E1E1E"/>
<g clip-path="url(#clip0_0_1)" filter="url(#filter0_dd_0_1)">
<path d="M2049 58H49V1558H2049V58Z" fill="#EE5522"/>
<path d="M48.9998 3058C1705.85 3058 3049 1714.85 3049 57.9998C3049 -1598.85 1705.85 -2942 48.9998 -2942C-1607.85 -2942 -2951 -1598.85 -2951 57.9998C-2951 1714.85 -1607.85 3058 48.9998 3058Z" fill="url(#paint0_radial_0_1)"/>
<g opacity="0.5">
<path d="M48.9998 2058C1153.57 2058 2049 1162.57 2049 57.9998C2049 -1046.57 1153.57 -1942 48.9998 -1942C-1055.57 -1942 -1951 -1046.57 -1951 57.9998C-1951 1162.57 -1055.57 2058 48.9998 2058Z" fill="url(#paint1_radial_0_1)"/>
<path d="M48.9998 1858C1043.11 1858 1849 1052.11 1849 57.9998C1849 -936.113 1043.11 -1742 48.9998 -1742C-945.113 -1742 -1751 -936.113 -1751 57.9998C-1751 1052.11 -945.113 1858 48.9998 1858Z" fill="url(#paint2_radial_0_1)"/>
<path d="M48.9998 1758C987.884 1758 1749 996.884 1749 57.9998C1749 -880.884 987.884 -1642 48.9998 -1642C-889.884 -1642 -1651 -880.884 -1651 57.9998C-1651 996.884 -889.884 1758 48.9998 1758Z" fill="url(#paint3_radial_0_1)"/>
<path d="M48.9998 1709C960.822 1709 1700 969.822 1700 57.9998C1700 -853.822 960.822 -1593 48.9998 -1593C-862.822 -1593 -1602 -853.822 -1602 57.9998C-1602 969.822 -862.822 1709 48.9998 1709Z" fill="url(#paint4_radial_0_1)"/>
<path d="M48.9998 1508C849.813 1508 1499 858.813 1499 57.9998C1499 -742.813 849.813 -1392 48.9998 -1392C-751.813 -1392 -1401 -742.813 -1401 57.9998C-1401 858.813 -751.813 1508 48.9998 1508Z" fill="url(#paint5_radial_0_1)"/>
<path d="M48.9998 1308C739.356 1308 1299 748.356 1299 57.9998C1299 -632.356 739.356 -1192 48.9998 -1192C-641.356 -1192 -1201 -632.356 -1201 57.9998C-1201 748.356 -641.356 1308 48.9998 1308Z" fill="url(#paint6_radial_0_1)"/>
<path d="M48.9998 1233C697.934 1233 1224 706.934 1224 57.9998C1224 -590.935 697.934 -1117 48.9998 -1117C-599.935 -1117 -1126 -590.935 -1126 57.9998C-1126 706.934 -599.935 1233 48.9998 1233Z" fill="url(#paint7_radial_0_1)"/>
<path d="M48.9998 958C546.056 958 949 555.056 949 57.9998C949 -439.057 546.056 -842 48.9998 -842C-448.057 -842 -851 -439.057 -851 57.9998C-851 555.056 -448.057 958 48.9998 958Z" fill="url(#paint8_radial_0_1)"/>
<path d="M48.9998 808C463.213 808 799 472.213 799 57.9998C799 -356.214 463.213 -692 48.9998 -692C-365.214 -692 -701 -356.214 -701 57.9998C-701 472.213 -365.214 808 48.9998 808Z" fill="url(#paint9_radial_0_1)"/>
<path d="M48.9998 558C325.142 558 549 334.142 549 57.9998C549 -218.143 325.142 -442 48.9998 -442C-227.143 -442 -451 -218.143 -451 57.9998C-451 334.142 -227.143 558 48.9998 558Z" fill="url(#paint10_radial_0_1)"/>
<path d="M48.9998 438C258.868 438 429 267.868 429 57.9998C429 -151.868 258.868 -322 48.9998 -322C-160.868 -322 -331 -151.868 -331 57.9998C-331 267.868 -160.868 438 48.9998 438Z" fill="url(#paint11_radial_0_1)"/>
<path d="M48.9998 308C187.071 308 299 196.071 299 57.9998C299 -80.0714 187.071 -192 48.9998 -192C-89.0714 -192 -201 -80.0714 -201 57.9998C-201 196.071 -89.0714 308 48.9998 308Z" fill="url(#paint12_radial_0_1)"/>
</g>
<path d="M106.764 234.81C95.3678 238.269 83.6532 240.642 71.8429 241.876C60.0285 243.099 48.1297 243.177 36.3516 242.113C24.5734 241.049 12.9272 238.839 1.62001 235.561C-9.69129 232.271 -20.6523 227.909 -31.0825 222.549C-41.5127 217.189 -51.408 210.843 -60.5942 203.638C-69.7844 196.422 -78.2541 188.344 -85.8516 179.539C-93.4491 170.735 -100.186 161.208 -105.927 151.154C-111.676 141.076 -116.426 130.482 -120.145 119.563C-115.964 130.314 -110.773 140.645 -104.642 150.367C-98.5231 160.093 -91.4678 169.197 -83.6254 177.516C-75.7789 185.847 -67.1453 193.393 -57.8989 200.027C-48.6483 206.671 -38.7696 212.411 -28.4667 217.14C-18.1597 221.881 -7.41314 225.619 3.54735 228.296C14.5232 230.979 25.7243 232.598 36.96 233.119C48.1956 233.639 59.4473 233.081 70.5255 231.45C81.6036 229.819 92.4928 227.107 103.021 223.403C106.145 222.304 109.465 224.02 110.564 227.144C111.662 230.269 110.137 233.621 107.001 234.724C106.922 234.753 106.854 234.777 106.771 234.795L106.764 234.81Z" fill="url(#paint13_linear_0_1)"/>
<path d="M336.625 173.669C328.831 191.924 319.312 209.424 308.234 225.824C297.138 242.218 284.491 257.493 270.515 271.391C256.538 285.289 241.24 297.791 224.941 308.715C208.623 319.632 191.311 328.953 173.293 336.528C155.276 344.102 136.573 349.937 117.533 353.947C98.4745 357.95 79.0867 360.109 59.7064 360.377C40.3261 360.645 20.9463 359.04 1.95838 355.598C-17.0671 352.142 -35.682 346.857 -53.6061 339.907C-35.4016 346.086 -16.6497 350.528 2.3299 353.115C21.3027 355.722 40.4845 356.467 59.508 355.367C78.5502 354.274 97.4341 351.335 115.809 346.637C134.203 341.945 152.114 335.481 169.19 327.394C186.285 319.313 202.57 309.597 217.73 298.471C232.915 287.333 246.981 274.766 259.683 260.979C272.384 247.191 283.726 232.228 293.511 216.336C303.297 200.445 311.5 183.637 318.05 166.227C319.994 161.06 325.741 158.661 330.908 160.606C336.074 162.55 338.719 168.089 336.768 173.274C336.72 173.406 336.679 173.519 336.613 173.643L336.625 173.669Z" fill="url(#paint14_linear_0_1)"/>
<path d="M288.07 362.981C268.223 377.872 246.981 390.866 224.739 401.697C202.481 412.508 179.243 421.14 155.427 427.45C131.611 433.759 107.236 437.731 82.7644 439.37C58.2763 440.99 33.7098 440.26 9.47148 437.199C-14.7668 434.138 -38.6609 428.764 -61.7781 421.205C-84.9114 413.627 -107.249 403.847 -128.396 392.024C-149.543 380.202 -169.519 366.352 -187.923 350.758C-206.359 335.127 -223.207 317.771 -238.267 299.045C-222.422 317.112 -204.898 333.64 -185.969 348.303C-167.059 362.982 -146.76 375.778 -125.479 386.477C-104.182 397.195 -81.9034 405.816 -59.075 412.214C-36.2305 418.632 -12.8014 422.829 10.7384 424.746C34.2943 426.683 57.9961 426.343 81.3606 423.773C104.76 421.207 127.842 416.394 150.209 409.408C172.576 402.421 194.206 393.311 214.731 382.224C235.256 371.137 254.641 358.069 272.613 343.315C277.947 338.938 285.667 339.932 290.045 345.266C294.423 350.6 293.825 358.249 288.472 362.643C288.338 362.756 288.223 362.852 288.073 362.945L288.07 362.981Z" fill="url(#paint15_linear_0_1)"/>
<path d="M509.387 -7.46012C512.954 22.0995 513.713 51.9716 511.624 81.5843C509.504 111.202 504.532 140.531 496.8 169.068C489.067 197.604 478.57 225.318 465.59 251.733C452.58 278.153 437.082 303.246 419.358 326.598C401.634 349.951 381.713 371.558 359.987 391.047C338.232 410.541 314.666 427.887 289.691 442.77C264.716 457.653 238.337 470.102 211.09 479.872C183.783 489.653 155.638 496.748 127.142 501.163C155.424 495.537 183.115 487.242 209.71 476.369C236.311 465.525 261.789 452.107 285.676 436.41C309.593 420.709 331.92 402.729 352.266 382.843C372.641 362.953 391.06 341.123 407.177 317.81C423.323 294.492 437.191 269.657 448.539 243.834C459.912 217.976 468.76 191.101 474.919 163.665C481.078 136.229 484.589 108.284 485.382 80.3016C486.175 52.3188 484.226 24.3321 479.676 -3.19609C478.327 -11.3659 483.993 -18.7927 492.163 -20.1419C500.333 -21.4911 507.923 -16.2799 509.278 -8.08055C509.314 -7.87374 509.345 -7.69648 509.352 -7.48446L509.387 -7.46012Z" fill="url(#paint16_linear_0_1)"/>
<path d="M638.368 -134.548C649.896 -96.5599 657.808 -57.5112 661.921 -18.1436C665.996 21.2376 666.257 60.9002 662.711 100.161C659.165 139.421 651.798 178.242 640.87 215.933C629.905 253.637 615.364 290.174 597.498 324.941C579.631 359.708 558.477 392.693 534.461 423.313C510.408 453.947 483.48 482.18 454.132 507.505C424.784 532.83 393.029 555.285 359.513 574.422C325.922 593.587 290.607 609.42 254.212 621.815C290.046 607.879 324.486 590.576 356.891 570.141C389.309 549.743 419.656 526.225 447.387 500.084C475.156 473.929 500.311 445.15 522.422 414.329C544.572 383.494 563.703 350.565 579.468 316.222C595.27 281.865 607.73 246.043 616.652 209.508C625.599 172.922 630.994 135.585 632.729 98.1328C634.465 60.6807 632.605 23.1749 627.167 -13.7523C621.729 -50.6794 612.69 -86.9767 600.342 -122.07C596.679 -132.485 602.4 -143.549 612.815 -147.212C623.231 -150.875 634.404 -145.79 638.081 -135.337C638.176 -135.074 638.258 -134.849 638.317 -134.572L638.368 -134.548Z" fill="url(#paint17_linear_0_1)"/>
<path d="M706.923 467.643C679.81 509.205 648.776 548.156 614.384 583.726C579.948 619.27 542.179 651.388 501.736 679.538C461.293 707.688 418.2 731.826 373.329 751.645C328.414 771.44 281.745 786.873 234.098 797.7C186.451 808.527 137.87 814.773 89.2527 816.38C40.5925 817.962 -8.07777 814.861 -55.9087 807.107C-103.74 799.352 -150.756 786.987 -196.011 770.271C-241.352 753.504 -284.888 732.41 -326 707.519C-283.863 730.634 -239.623 749.71 -194.018 764.32C-148.438 778.973 -101.536 789.135 -54.2223 794.686C-6.86541 800.261 40.9027 801.224 88.1826 797.633C135.506 794.067 182.409 785.928 227.961 773.43C273.556 760.956 317.869 744.105 360.022 723.293C402.244 702.463 442.331 677.63 479.588 649.199C516.845 620.769 551.264 588.853 582.255 553.975C613.245 519.098 640.739 481.278 664.422 441.258C671.452 429.381 686.643 425.97 698.519 433C710.395 440.03 714.503 454.814 707.448 466.734C707.273 467.037 707.123 467.297 706.905 467.575L706.923 467.643Z" fill="url(#paint18_linear_0_1)"/>
<path d="M337.822 942.052C280.839 959.343 222.266 971.212 163.215 977.381C104.143 983.494 44.6491 983.885 -14.2416 978.566C-73.1324 973.247 -131.363 962.197 -187.899 945.805C-244.456 929.357 -299.261 907.546 -351.412 880.746C-403.563 853.947 -453.04 822.215 -498.97 786.192C-544.922 750.112 -587.27 709.72 -625.258 665.698C-663.245 621.676 -696.928 574.043 -725.634 523.769C-754.38 473.383 -778.13 420.411 -796.723 365.818C-775.819 419.57 -749.865 471.228 -719.212 519.836C-688.615 568.463 -653.339 613.983 -614.127 655.581C-574.894 697.235 -531.726 734.966 -485.494 768.134C-439.241 801.358 -389.847 830.055 -338.333 853.702C-286.798 877.405 -233.065 896.095 -178.263 909.478C-123.383 922.898 -67.3779 930.991 -11.1997 933.594C44.9785 936.197 101.237 933.407 156.628 925.25C212.019 917.094 266.465 903.534 319.105 885.013C334.727 879.519 351.323 888.1 356.818 903.723C362.313 919.346 354.685 936.105 339.006 941.621C338.611 941.764 338.273 941.887 337.857 941.975L337.822 942.052Z" fill="url(#paint19_linear_0_1)"/>
<path d="M1055.69 462.842C1028.41 526.735 995.091 587.984 956.32 645.385C917.484 702.763 873.218 756.227 824.301 804.87C775.385 853.513 721.84 897.269 664.793 935.503C607.68 973.714 547.088 1006.34 484.027 1032.85C420.967 1059.36 355.504 1079.78 288.865 1093.82C222.161 1107.83 154.304 1115.38 86.4727 1116.32C18.6415 1117.26 -49.1877 1111.64 -115.645 1099.59C-182.235 1087.5 -247.387 1069 -310.121 1044.68C-246.405 1066.3 -180.774 1081.85 -114.345 1090.9C-47.9404 1100.03 19.1961 1102.64 85.7781 1098.79C152.426 1094.96 218.52 1084.67 282.833 1068.23C347.212 1051.81 409.9 1029.18 469.666 1000.88C529.497 972.596 586.495 938.59 639.554 899.649C692.702 860.665 741.935 816.681 786.39 768.426C830.845 720.17 870.541 667.799 904.79 612.178C939.039 556.558 967.751 497.73 990.674 436.795C997.479 418.712 1017.59 410.316 1035.68 417.121C1053.76 423.926 1063.02 443.312 1056.19 461.46C1056.02 461.921 1055.88 462.315 1055.64 462.752L1055.69 462.842Z" fill="url(#paint20_linear_0_1)"/>
<path d="M1190.82 -551.478C1228.29 -477.561 1258.71 -400.153 1281.43 -320.713C1304.09 -241.23 1319 -159.787 1325.94 -77.7907C1332.88 4.20589 1331.81 86.6834 1323.01 168.129C1314.13 249.616 1297.48 329.998 1273.36 407.949C1249.23 485.899 1217.7 561.377 1179.43 633.031C1141.08 704.727 1095.96 772.528 1044.81 835.23C993.653 897.931 936.511 955.604 874.547 1007.1C812.437 1058.67 745.578 1104.02 675.25 1142.7C743.866 1101.06 808.394 1053 867.604 999.245C926.855 945.56 980.717 886.212 1028.25 822.419C1075.86 758.584 1117.14 690.303 1151.42 618.925C1185.78 547.506 1213.17 472.875 1233.13 396.559C1253.16 320.201 1265.79 242.042 1270.89 163.7C1276.02 85.2437 1273.58 6.531 1263.57 -71.0916C1253.56 -148.714 1236.14 -225.144 1211.58 -299.087C1187.01 -373.03 1155.27 -444.373 1117.17 -512.042C1105.86 -532.125 1113.61 -556.944 1133.7 -568.25C1153.78 -579.556 1178.59 -573.152 1189.94 -552.996C1190.23 -552.49 1190.48 -552.056 1190.7 -551.508L1190.82 -551.478Z" fill="url(#paint21_linear_0_1)"/>
<path d="M909.651 1155.93C838.203 1209.54 761.731 1256.32 681.661 1295.31C601.533 1334.23 517.875 1365.3 432.137 1388.02C346.399 1410.73 258.651 1425.03 170.552 1430.93C82.3949 1436.76 -6.04445 1434.14 -93.3024 1423.12C-180.56 1412.1 -266.579 1392.75 -349.801 1365.54C-433.081 1338.26 -513.495 1303.05 -589.625 1260.49C-665.755 1217.93 -737.668 1168.07 -803.922 1111.93C-870.292 1055.66 -930.944 993.175 -985.16 925.763C-928.118 990.803 -865.033 1050.3 -796.889 1103.09C-728.813 1155.94 -655.737 1202 -579.126 1240.52C-502.456 1279.1 -422.252 1310.14 -340.07 1333.17C-257.83 1356.27 -173.485 1371.38 -88.7414 1378.29C-3.9402 1385.26 81.3863 1384.04 165.499 1374.78C249.738 1365.55 332.832 1348.22 413.352 1323.07C493.873 1297.92 571.741 1265.12 645.631 1225.21C719.522 1185.29 789.31 1138.25 854.006 1085.14C873.208 1069.38 901.003 1072.96 916.763 1092.16C932.523 1111.36 930.37 1138.9 911.098 1154.72C910.616 1155.12 910.202 1155.47 909.662 1155.8L909.651 1155.93Z" fill="url(#paint22_linear_0_1)"/>
<path d="M1350.41 1035.4C1286.08 1117.38 1214.03 1193.19 1135.57 1261.3C1057.02 1329.36 972.129 1389.64 882.369 1441.13C792.609 1492.61 698.042 1535.22 600.543 1568.47C502.959 1601.66 402.502 1625.41 300.842 1639.34C199.183 1653.27 96.406 1657.44 -5.59503 1651.91C-107.682 1646.31 -208.933 1630.91 -307.577 1605.94C-406.22 1580.96 -502.316 1546.49 -593.929 1503.23C-685.715 1459.86 -772.931 1407.76 -854.383 1348.16C-770.462 1404.23 -681.404 1452.24 -588.672 1491.15C-496 1530.15 -399.74 1559.99 -301.775 1580.26C-203.725 1600.59 -103.97 1611.35 -4.40243 1612.49C95.2508 1613.69 194.862 1605.25 292.445 1587.44C390.114 1569.69 485.9 1542.55 577.895 1506.73C670.035 1470.88 758.443 1426.26 841.588 1373.6C924.733 1320.95 1002.58 1260.48 1073.8 1193.19C1145.01 1125.89 1209.45 1051.81 1266.32 972.417C1283.2 948.859 1315.61 944.502 1339.16 961.383C1362.72 978.263 1368.61 1009.94 1351.67 1033.59C1351.25 1034.19 1350.89 1034.71 1350.38 1035.25L1350.41 1035.4Z" fill="url(#paint23_linear_0_1)"/>
<path d="M1797.92 691.364C1755.01 802.461 1701.59 909.388 1638.6 1010.05C1575.5 1110.67 1502.86 1204.92 1421.96 1291.18C1341.07 1377.45 1251.95 1455.62 1156.5 1524.53C1060.94 1593.41 959.081 1652.93 852.63 1702.12C746.178 1751.32 635.247 1790.22 521.918 1818.25C408.475 1846.25 292.672 1863.25 176.517 1868.92C60.3615 1874.58 -56.1824 1869.01 -170.761 1852.35C-285.568 1835.62 -398.297 1807.82 -507.231 1769.9C-396.776 1803.14 -283.404 1825.85 -169.053 1837.39C-54.7402 1849.04 60.4368 1849.5 174.278 1838.92C288.233 1828.38 400.851 1806.8 510.052 1774.78C619.366 1742.79 725.413 1700.28 826.112 1648.21C926.925 1596.18 1022.54 1534.51 1111.11 1464.62C1199.84 1394.65 1281.55 1316.35 1354.83 1231.01C1428.11 1145.68 1492.98 1053.58 1548.33 956.241C1603.68 858.901 1649.35 756.397 1684.98 650.63C1695.55 619.242 1729.51 603.653 1760.9 614.23C1792.29 624.807 1809.31 657.465 1798.7 688.967C1798.44 689.766 1798.21 690.451 1797.84 691.213L1797.92 691.364Z" fill="url(#paint24_linear_0_1)"/>
<path d="M1429.1 -1479.73C1525.67 -1389.31 1613.57 -1289.8 1691.03 -1183.03C1768.41 -1076.17 1835.26 -962.134 1890.44 -842.919C1945.62 -723.703 1989.05 -599.39 2020.31 -472.405C2051.49 -345.318 2070.4 -215.644 2076.77 -85.5343C2083.14 44.5752 2077.05 175.018 2058.76 303.405C2040.39 431.895 2009.71 558.243 1967.21 680.233C1924.71 802.223 1870.48 919.941 1805.64 1031.02C1740.63 1142.3 1665.09 1246.84 1580.71 1343.25C1660.9 1243.32 1731.47 1136 1790.94 1023.03C1850.51 910.145 1898.9 791.708 1935.38 670.055C1971.94 548.301 1996.59 423.332 2009.05 297.536C2021.59 171.638 2021.94 44.7259 2010.21 -80.657C1998.57 -206.142 1974.84 -330.285 1939.71 -450.593C1904.57 -571.089 1857.93 -687.835 1800.53 -798.814C1743.14 -909.794 1675.27 -1014.94 1598.05 -1112.45C1520.83 -1209.96 1434.26 -1299.65 1340.15 -1380.36C1312.22 -1404.32 1310.3 -1445.78 1334.25 -1473.71C1358.21 -1501.63 1398.93 -1505.57 1426.96 -1481.53C1427.67 -1480.93 1428.28 -1480.42 1428.91 -1479.72L1429.1 -1479.73Z" fill="url(#paint25_linear_0_1)"/>
<path d="M2185.46 -639.986C2227.25 -502.279 2255.93 -360.727 2270.84 -218.02C2285.61 -75.2627 2286.56 68.5143 2273.7 210.834C2260.85 353.153 2234.14 493.878 2194.53 630.507C2154.78 767.185 2102.07 899.63 2037.3 1025.66C1972.54 1151.69 1895.85 1271.26 1808.8 1382.26C1721.61 1493.31 1623.99 1595.65 1517.6 1687.46C1411.22 1779.26 1296.1 1860.66 1174.61 1930.03C1052.84 1999.5 924.827 2056.9 792.894 2101.83C922.794 2051.31 1047.64 1988.59 1165.1 1914.51C1282.62 1840.57 1392.63 1755.32 1493.15 1660.56C1593.82 1565.74 1685 1461.42 1765.16 1349.69C1845.45 1237.92 1914.8 1118.55 1971.95 994.054C2029.23 869.511 2074.4 739.657 2106.74 607.218C2139.17 474.593 2158.73 339.246 2165.02 203.482C2171.31 67.7183 2164.57 -68.2401 2144.86 -202.101C2125.14 -335.962 2092.38 -467.54 2047.62 -594.753C2034.34 -632.508 2055.08 -672.615 2092.83 -685.894C2130.59 -699.173 2171.09 -680.739 2184.42 -642.847C2184.76 -641.893 2185.06 -641.076 2185.27 -640.073L2185.46 -639.986Z" fill="url(#paint26_linear_0_1)"/>
<path d="M2350 983.353C2287.65 1129.4 2211.49 1269.39 2122.88 1400.6C2034.11 1531.74 1932.93 1653.95 1821.12 1765.13C1709.31 1876.32 1586.92 1976.33 1456.53 2063.72C1325.98 2151.06 1187.49 2225.63 1043.35 2286.23C899.211 2346.82 749.582 2393.5 597.264 2425.58C444.796 2457.6 289.695 2474.88 134.652 2477.02C-20.3906 2479.16 -175.429 2466.32 -327.332 2438.79C-479.537 2411.14 -628.456 2368.86 -771.848 2313.26C-626.212 2362.69 -476.197 2398.22 -324.36 2418.92C-172.578 2439.77 -19.1231 2445.74 133.064 2436.94C285.402 2428.19 436.473 2404.69 583.475 2367.1C730.627 2329.56 873.915 2277.85 1010.52 2213.15C1147.28 2148.51 1277.56 2070.78 1398.84 1981.77C1520.32 1892.66 1632.85 1792.13 1734.46 1681.83C1836.07 1571.53 1926.81 1451.83 2005.09 1324.69C2083.37 1197.56 2149 1063.1 2201.4 923.818C2216.95 882.486 2262.93 863.293 2304.26 878.848C2345.59 894.403 2366.76 938.712 2351.15 980.195C2350.76 981.248 2350.44 982.15 2349.9 983.148L2350 983.353Z" fill="url(#paint27_linear_0_1)"/>
<path d="M-158.067 288.717C-172.556 275.15 -185.744 260.22 -197.367 244.201C-208.977 228.167 -219.005 211.058 -227.285 193.171C-235.565 175.285 -242.08 156.633 -246.771 137.58C-251.448 118.513 -254.286 99.0566 -255.242 79.5353C-256.197 60.014 -255.283 40.4427 -252.539 21.1798C-249.783 1.90153 -245.181 -17.0555 -238.804 -35.3586C-232.427 -53.6617 -224.29 -71.3237 -214.562 -87.9894C-204.807 -104.686 -193.474 -120.37 -180.813 -134.836C-192.846 -119.843 -203.433 -103.741 -212.356 -86.7911C-221.294 -69.8539 -228.555 -52.0839 -234.028 -33.8315C-239.514 -15.5638 -243.211 3.18629 -245.08 22.0604C-246.963 40.9498 -247.014 59.9914 -245.255 78.8035C-243.508 97.631 -239.948 116.257 -234.678 134.308C-229.405 152.387 -222.407 169.903 -213.796 186.554C-205.184 203.205 -195.002 218.981 -183.416 233.611C-171.829 248.242 -158.841 261.699 -144.721 273.808C-140.531 277.402 -140.242 283.623 -143.836 287.813C-147.43 292.003 -153.54 292.594 -157.745 288.987C-157.852 288.897 -157.944 288.82 -158.039 288.715L-158.067 288.717Z" fill="url(#paint28_linear_0_1)"/>
<path d="M-319.355 178.342C-326.56 154.599 -331.505 130.194 -334.076 105.589C-336.623 80.976 -336.786 56.1869 -334.57 31.6491C-332.353 7.11129 -327.749 -17.1517 -320.919 -40.7083C-314.065 -64.2735 -304.978 -87.1089 -293.811 -108.839C-282.645 -130.568 -269.423 -151.183 -254.413 -170.321C-239.38 -189.468 -222.55 -207.113 -204.208 -222.941C-185.865 -238.769 -166.018 -252.803 -145.071 -264.764C-124.076 -276.742 -102.005 -286.638 -79.2576 -294.385C-101.654 -285.675 -123.179 -274.861 -143.432 -262.088C-163.693 -249.34 -182.66 -234.641 -199.992 -218.303C-217.348 -201.956 -233.069 -183.969 -246.889 -164.706C-260.733 -145.434 -272.69 -124.853 -282.543 -103.389C-292.419 -81.916 -300.206 -59.5274 -305.783 -36.693C-311.374 -13.8266 -314.746 9.50898 -315.831 32.9166C-316.916 56.3241 -315.753 79.7653 -312.354 102.845C-308.956 125.924 -303.306 148.61 -295.589 170.543C-293.3 177.053 -296.875 183.968 -303.385 186.257C-309.894 188.547 -316.877 185.368 -319.175 178.835C-319.235 178.671 -319.287 178.53 -319.323 178.357L-319.355 178.342Z" fill="url(#paint29_linear_0_1)"/>
<path d="M-46.9496 513.011C-75.9466 506.253 -104.277 496.749 -131.389 484.657C-158.496 472.536 -184.355 457.832 -208.526 440.806C-232.697 423.781 -255.149 404.438 -275.532 383.206C-295.909 361.944 -314.188 338.799 -330.07 314.156C-345.952 289.514 -359.443 263.405 -370.326 236.324C-381.204 209.213 -389.443 181.136 -394.887 152.576C-400.33 124.017 -403.007 94.9712 -402.869 66.0255C-402.72 37.0207 -399.761 8.14584 -394.164 -20.142C-398.549 8.35943 -400.226 37.2167 -399.104 65.9276C-398.013 94.6333 -394.117 123.163 -387.538 150.978C-380.963 178.823 -371.703 205.953 -359.976 231.873C-348.254 257.823 -334.04 282.598 -317.646 305.716C-301.256 328.863 -282.662 350.389 -262.277 369.885C-241.869 389.416 -219.641 406.922 -195.966 422.093C-172.291 437.265 -147.232 450.121 -121.208 460.437C-95.1844 470.753 -68.2187 478.493 -40.7947 483.633C-32.6561 485.16 -27.6153 493.025 -29.1417 501.163C-30.6681 509.302 -38.161 514.652 -46.3291 513.12C-46.5359 513.084 -46.7132 513.053 -46.9148 512.987L-46.9496 513.011Z" fill="url(#paint30_linear_0_1)"/>
<path d="M28.36 677.68C-11.28 675.52 -50.68 669.6 -89.08 660C-127.48 650.36 -164.84 637.04 -200.52 620.28C-236.2 603.52 -270.16 583.32 -301.84 560.16C-333.52 536.96 -362.88 510.8 -389.44 482.12C-416 453.44 -439.76 422.28 -460.32 389.24C-480.88 356.16 -498.2 321.2 -511.96 284.96C-525.72 248.72 -535.96 211.2 -542.48 173.16C-549 135.04 -551.8 96.4397 -551 57.9997C-550.16 96.4397 -545.68 134.72 -537.56 172.16C-529.48 209.6 -517.76 246.16 -502.68 281.16C-487.6 316.2 -469.16 349.68 -447.76 381C-426.36 412.36 -401.96 441.6 -375.08 468.16C-348.2 494.76 -318.8 518.72 -287.52 539.6C-256.2 560.52 -222.96 578.36 -188.36 592.8C-153.76 607.24 -117.88 618.32 -81.32 625.84C-44.76 633.36 -7.56004 637.28 29.64 637.68C40.68 637.8 49.12 646.96 49 658C48.88 669.04 40.28 677.8 29.2 677.68C28.92 677.68 28.68 677.68 28.4 677.64L28.36 677.68Z" fill="url(#paint31_linear_0_1)"/>
<path d="M-560.962 536.139C-590.744 496.446 -616.732 453.962 -638.394 409.478C-660.017 364.962 -677.28 318.486 -689.9 270.854C-702.519 223.222 -710.463 174.473 -713.741 125.529C-716.98 76.5526 -715.52 27.4196 -709.398 -21.057C-703.276 -69.5336 -692.529 -117.322 -677.411 -163.556C-662.255 -209.823 -642.695 -254.498 -619.05 -296.792C-595.404 -339.086 -567.704 -379.038 -536.517 -415.846C-505.254 -452.718 -470.542 -486.414 -433.091 -516.534C-469.224 -484.843 -502.28 -449.796 -531.606 -411.938C-560.965 -374.119 -586.557 -333.521 -607.954 -290.959C-629.391 -248.365 -646.633 -203.807 -659.429 -158.15C-672.264 -112.461 -680.658 -65.6028 -684.493 -18.5232C-688.366 28.5886 -687.687 75.9922 -682.547 122.721C-677.414 169.521 -667.789 215.684 -653.816 260.418C-639.842 305.152 -621.623 348.411 -599.448 389.462C-577.274 430.512 -551.138 469.283 -521.631 505.225C-512.876 515.893 -514.866 531.335 -525.533 540.09C-536.201 548.846 -551.499 547.65 -560.287 536.943C-560.512 536.675 -560.705 536.445 -560.892 536.145L-560.962 536.139Z" fill="url(#paint32_linear_0_1)"/>
<path d="M-675.734 865.511C-726.445 818.026 -772.604 765.769 -813.284 709.704C-853.918 653.586 -889.019 593.704 -917.997 531.1C-946.976 468.496 -969.78 403.216 -986.197 336.532C-1002.57 269.794 -1012.5 201.699 -1015.85 133.374C-1019.19 65.0495 -1015.99 -3.45013 -1006.39 -70.8703C-996.739 -138.344 -980.632 -204.694 -958.313 -268.754C-935.994 -332.815 -907.516 -394.633 -873.466 -452.962C-839.326 -511.399 -799.659 -566.295 -755.347 -616.927C-797.461 -564.451 -834.515 -508.094 -865.745 -448.769C-897.029 -389.488 -922.443 -327.293 -941.598 -263.41C-960.798 -199.473 -973.738 -133.847 -980.281 -67.7882C-986.869 -1.67527 -987.05 64.9703 -980.892 130.813C-974.779 196.709 -962.318 261.901 -943.873 325.078C-925.418 388.354 -900.925 449.661 -870.784 507.94C-840.644 566.218 -805.007 621.433 -764.455 672.639C-723.903 723.846 -678.443 770.946 -629.023 813.328C-614.358 825.908 -613.347 847.681 -625.927 862.346C-638.507 877.011 -659.889 879.081 -674.608 866.456C-674.983 866.141 -675.305 865.871 -675.635 865.503L-675.734 865.511Z" fill="url(#paint33_linear_0_1)"/>
<path d="M231.197 1339.41C148.922 1349.34 65.7784 1351.45 -16.6437 1345.64C-99.0803 1339.74 -180.713 1325.9 -260.139 1304.38C-339.564 1282.85 -416.701 1253.64 -490.224 1217.51C-563.761 1181.3 -633.602 1138.16 -698.599 1088.83C-763.597 1039.5 -823.738 984.052 -877.982 923.582C-932.24 863.029 -980.519 797.438 -1021.94 727.924C-1063.37 658.41 -1098.02 584.989 -1125.21 509.15C-1152.43 433.147 -1172.18 354.809 -1184.47 275.494C-1168.81 354.214 -1145.72 431.286 -1115.46 505.311C-1085.28 579.35 -1047.93 650.262 -1004.24 716.748C-960.54 783.316 -910.495 845.46 -855.148 902.089C-799.787 958.802 -739.026 1010.07 -674.139 1054.93C-609.237 1099.87 -540.112 1138.47 -468.238 1170.05C-396.267 1201.71 -321.466 1226.33 -245.102 1243.47C-168.737 1260.62 -90.959 1270.39 -13.0735 1272.6C64.812 1274.8 142.708 1269.38 219.328 1256.72C242.068 1252.96 262.739 1268.73 266.494 1291.47C270.249 1314.21 255.745 1335.34 232.924 1339.11C232.348 1339.21 231.854 1339.3 231.264 1339.31L231.197 1339.41Z" fill="url(#paint34_linear_0_1)"/>
<path d="M-1277.08 491.232C-1303.02 405.759 -1320.82 317.899 -1330.07 229.322C-1339.24 140.714 -1339.83 51.4735 -1331.85 -36.8626C-1323.87 -125.199 -1307.3 -212.545 -1282.71 -297.349C-1258.04 -382.184 -1225.32 -464.391 -1185.12 -542.618C-1144.92 -620.845 -1097.32 -695.06 -1043.29 -763.956C-989.169 -832.882 -928.581 -896.406 -862.548 -953.387C-796.514 -1010.37 -725.065 -1060.89 -649.654 -1103.95C-574.074 -1147.07 -494.617 -1182.7 -412.727 -1210.59C-493.355 -1179.23 -570.843 -1140.3 -643.754 -1094.32C-716.696 -1048.42 -784.976 -995.508 -847.372 -936.69C-909.852 -877.842 -966.449 -813.089 -1016.2 -743.741C-1066.04 -674.362 -1109.08 -600.271 -1144.55 -522.999C-1180.11 -445.697 -1208.14 -365.098 -1228.22 -282.894C-1248.35 -200.575 -1260.49 -116.567 -1264.39 -32.2997C-1268.3 51.9676 -1264.11 136.356 -1251.88 219.442C-1239.64 302.528 -1219.3 384.197 -1191.52 463.157C-1183.28 486.591 -1196.15 511.485 -1219.59 519.727C-1243.02 527.969 -1268.16 516.527 -1276.43 493.008C-1276.65 492.416 -1276.83 491.909 -1276.96 491.286L-1277.08 491.232Z" fill="url(#paint35_linear_0_1)"/>
<path d="M-1314.56 946.632C-1369.6 858.143 -1416.19 764.509 -1453.36 667.484C-1490.45 570.399 -1518.06 470.01 -1535.74 368.054C-1553.43 266.097 -1561.12 162.66 -1559.02 59.6688C-1556.83 -43.3827 -1544.79 -145.902 -1523.11 -246.195C-1501.43 -346.488 -1470.2 -444.494 -1430.11 -538.45C-1389.93 -632.467 -1340.84 -722.346 -1283.63 -806.498C-1226.42 -890.651 -1161.16 -969.161 -1089.18 -1040.46C-1017.03 -1111.87 -938.244 -1176.01 -854.383 -1232.16C-935.775 -1172.48 -1011.34 -1105.21 -1079.62 -1031.38C-1147.96 -957.636 -1208.93 -877.389 -1261.49 -792.265C-1314.13 -707.082 -1358.35 -617.022 -1393.48 -523.849C-1428.69 -430.617 -1454.83 -334.125 -1471.47 -236.336C-1488.19 -138.487 -1495.45 -39.1935 -1493.25 59.5048C-1491.08 158.349 -1479.39 256.685 -1458.35 352.826C-1437.3 448.967 -1407.1 542.801 -1368.23 632.738C-1329.35 722.674 -1281.77 808.566 -1226.62 889.159C-1210.26 913.078 -1217.25 945.018 -1241.16 961.383C-1265.08 977.747 -1296.87 972.444 -1313.29 948.438C-1313.72 947.836 -1314.08 947.32 -1314.41 946.658L-1314.56 946.632Z" fill="url(#paint36_linear_0_1)"/>
<path d="M-1144.33 1484.82C-1234.05 1406.5 -1316.26 1319.73 -1389.31 1226.12C-1462.28 1132.4 -1526 1031.91 -1579.4 926.388C-1632.79 820.866 -1675.76 710.39 -1707.88 597.126C-1739.92 483.768 -1761.01 367.698 -1770.83 250.841C-1780.65 133.985 -1779.26 16.4372 -1766.84 -99.6445C-1754.35 -215.821 -1730.72 -330.457 -1696.32 -441.544C-1661.91 -552.631 -1616.82 -660.243 -1561.98 -762.213C-1506.98 -864.372 -1442.31 -960.795 -1369.42 -1050.19C-1438.43 -957.766 -1498.54 -858.996 -1548.5 -755.49C-1598.55 -652.057 -1638.37 -543.981 -1667.36 -433.387C-1696.43 -322.699 -1714.68 -209.493 -1721.93 -95.9259C-1729.26 17.7356 -1725.59 131.926 -1711.1 244.362C-1696.68 356.892 -1671.43 467.836 -1636.05 574.97C-1600.65 682.273 -1555.02 785.842 -1499.89 883.884C-1444.77 981.926 -1380.41 1074.39 -1307.87 1159.69C-1235.33 1245 -1154.63 1322.97 -1067.43 1392.62C-1041.55 1413.3 -1038.52 1450.54 -1059.19 1476.42C-1079.86 1502.3 -1116.38 1507.12 -1142.35 1486.37C-1143.01 1485.86 -1143.58 1485.41 -1144.16 1484.8L-1144.33 1484.82Z" fill="url(#paint37_linear_0_1)"/>
<path d="M1021.97 1880.81C903.973 1940.62 780.399 1989.19 653.579 2025.47C526.693 2061.63 396.677 2085.44 265.777 2096.52C134.877 2107.6 3.20917 2105.89 -126.811 2091.84C-256.897 2077.67 -385.22 2051.09 -509.661 2012.57C-634.102 1974.06 -754.594 1923.72 -868.984 1862.62C-983.44 1801.41 -1091.68 1729.37 -1191.78 1647.71C-1291.87 1566.05 -1383.94 1474.83 -1466.14 1375.91C-1548.48 1276.76 -1620.88 1170.02 -1682.62 1057.75C-1616.14 1167.29 -1539.43 1270.3 -1453.61 1364.82C-1367.91 1459.41 -1273.16 1545.4 -1171.32 1621.28C-1069.42 1697.28 -960.413 1763.18 -846.465 1817.91C-732.451 1872.76 -613.31 1916.49 -491.478 1948.36C-369.58 1980.34 -244.807 2000.5 -119.741 2008.64C5.50762 2016.83 131.165 2012.93 255.082 1996.95C379 1980.97 501.012 1953.16 619.056 1913.95C737.099 1874.73 850.991 1824.06 959.018 1763.23C991.08 1745.18 1030.7 1757.56 1048.75 1789.62C1066.8 1821.68 1056.58 1861.29 1024.4 1879.41C1023.59 1879.87 1022.9 1880.27 1022.02 1880.62L1021.97 1880.81Z" fill="url(#paint38_linear_0_1)"/>
<path d="M-25.8201 2304.34C-169.515 2296.51 -312.34 2275.05 -451.54 2240.25C-590.74 2205.3 -726.17 2157.02 -855.51 2096.26C-984.85 2035.51 -1107.96 1962.28 -1222.8 1878.33C-1337.64 1794.23 -1444.07 1699.4 -1540.35 1595.43C-1636.63 1491.47 -1722.76 1378.51 -1797.29 1258.74C-1871.82 1138.83 -1934.6 1012.1 -1984.48 880.73C-2034.36 749.36 -2071.48 613.35 -2095.12 475.455C-2118.75 337.27 -2128.9 197.345 -2126 57.9997C-2122.96 197.345 -2106.72 336.11 -2077.28 471.83C-2047.99 607.55 -2005.51 740.08 -1950.84 866.955C-1896.18 993.975 -1829.33 1115.34 -1751.76 1228.87C-1674.18 1342.55 -1585.73 1448.55 -1488.29 1544.83C-1390.85 1641.25 -1284.28 1728.11 -1170.89 1803.8C-1057.35 1879.63 -936.855 1944.3 -811.43 1996.65C-686.005 2048.99 -555.94 2089.16 -423.41 2116.42C-290.88 2143.68 -156.03 2157.89 -21.1801 2159.34C18.8399 2159.77 49.4349 2192.98 48.9999 2233C48.5649 2273.02 17.3899 2304.77 -22.7751 2304.34C-23.7901 2304.34 -24.6601 2304.34 -25.6751 2304.19L-25.8201 2304.34Z" fill="url(#paint39_linear_0_1)"/>
<path d="M-1607.54 1903.74C-1723.45 1795.2 -1828.95 1675.76 -1921.93 1547.61C-2014.81 1419.34 -2095.04 1282.47 -2161.28 1139.37C-2227.52 996.278 -2279.64 847.065 -2317.16 694.645C-2354.59 542.102 -2377.29 386.454 -2384.93 230.284C-2392.58 74.1134 -2385.27 -82.4571 -2363.31 -236.56C-2341.26 -390.786 -2304.44 -542.442 -2253.43 -688.867C-2202.41 -835.292 -2137.32 -976.588 -2059.49 -1109.91C-1981.46 -1243.48 -1890.79 -1368.96 -1789.51 -1484.69C-1885.77 -1364.74 -1970.46 -1235.93 -2041.85 -1100.33C-2113.35 -964.83 -2171.44 -822.67 -2215.22 -676.65C-2259.11 -530.509 -2288.69 -380.508 -2303.64 -229.515C-2318.7 -78.4003 -2319.11 73.9324 -2305.04 224.43C-2291.07 375.049 -2262.58 524.059 -2220.42 668.464C-2178.24 813.095 -2122.26 953.225 -2053.36 1086.43C-1984.47 1219.64 -1903.02 1345.85 -1810.33 1462.89C-1717.63 1579.93 -1613.73 1687.59 -1500.77 1784.46C-1467.25 1813.22 -1464.94 1862.99 -1493.69 1896.51C-1522.44 1930.03 -1571.32 1934.76 -1604.96 1905.9C-1605.82 1905.18 -1606.55 1904.56 -1607.31 1903.72L-1607.54 1903.74Z" fill="url(#paint40_linear_0_1)"/>
<path d="M147.314 -99.9018C157.289 -93.3946 166.637 -85.9466 175.174 -77.6924C183.705 -69.4279 191.413 -60.3632 198.169 -50.6569C204.925 -40.9505 210.718 -30.6084 215.475 -19.8392C220.225 -9.0597 223.929 2.14087 226.528 13.5762C229.126 25.0114 230.625 36.6711 231.011 48.3391C231.391 60.0175 230.646 71.6984 228.785 83.1778C226.924 94.6573 223.957 105.941 219.945 116.802C215.921 127.684 210.858 138.133 204.884 148C210.432 137.887 215.01 127.269 218.516 116.324C222.033 105.385 224.472 94.1284 225.804 82.7731C227.142 71.4074 227.374 59.9431 226.512 48.5959C225.656 37.2383 223.703 25.9816 220.703 15.0491C217.709 4.10618 213.665 -6.5288 208.67 -16.6456C203.671 -26.7788 197.711 -36.3997 190.888 -45.3413C184.064 -54.283 176.404 -62.5436 168.034 -69.9814C159.663 -77.4191 150.586 -84.0176 140.982 -89.7015C138.131 -91.3887 137.313 -95.0345 139 -97.8848C140.687 -100.735 144.235 -101.721 147.096 -100.028C147.169 -99.9858 147.231 -99.9498 147.298 -99.8974L147.314 -99.9018Z" fill="url(#paint41_linear_0_1)"/>
<path d="M-47.2742 -236.684C-28.2801 -242.448 -8.7558 -246.405 10.928 -248.461C30.6186 -250.498 50.4499 -250.629 70.0802 -248.856C89.7104 -247.083 109.121 -243.4 127.966 -237.935C146.818 -232.453 165.087 -225.182 182.47 -216.249C199.854 -207.316 216.346 -196.739 231.656 -184.731C246.973 -172.704 261.09 -159.241 273.752 -144.566C286.415 -129.892 297.642 -114.015 307.211 -97.2568C316.793 -80.4612 324.71 -62.804 330.907 -44.6063C323.939 -62.5236 315.288 -79.7431 305.07 -95.9456C294.871 -112.155 283.112 -127.328 270.042 -141.194C256.964 -155.079 242.575 -167.656 227.164 -178.712C211.747 -189.786 195.282 -199.352 178.111 -207.234C160.932 -215.136 143.021 -221.365 124.754 -225.827C106.461 -230.3 87.7923 -232.997 69.0662 -233.865C50.3401 -234.733 31.5873 -233.803 13.1237 -231.084C-5.33989 -228.365 -23.4885 -223.845 -41.0352 -217.672C-46.2428 -215.84 -51.7748 -218.7 -53.6064 -223.908C-55.4379 -229.116 -52.8953 -234.702 -47.6689 -236.541C-47.5373 -236.588 -47.4246 -236.63 -47.2862 -236.659L-47.2742 -236.684Z" fill="url(#paint42_linear_0_1)"/>
<path d="M128.958 -321.176C153.122 -315.545 176.73 -307.625 199.324 -297.548C221.913 -287.447 243.463 -275.194 263.605 -261.006C283.747 -246.818 302.457 -230.699 319.443 -213.005C336.424 -195.287 351.656 -175.999 364.891 -155.464C378.127 -134.929 389.369 -113.171 398.438 -90.6035C407.503 -68.0112 414.369 -44.6134 418.905 -20.8142C423.441 2.98512 425.672 27.1902 425.557 51.3116C425.433 75.4823 422.967 99.5447 418.303 123.118C421.957 99.3667 423.355 75.3189 422.42 51.3932C421.51 27.4717 418.264 3.69691 412.781 -19.4824C407.302 -42.6863 399.586 -65.2947 389.813 -86.8949C380.045 -108.52 368.2 -129.165 354.538 -148.43C340.88 -167.72 325.384 -185.658 308.397 -201.905C291.39 -218.18 272.867 -232.768 253.138 -245.412C233.409 -258.055 212.527 -268.768 190.84 -277.365C169.153 -285.961 146.682 -292.411 123.829 -296.695C117.046 -297.967 112.846 -304.521 114.118 -311.303C115.39 -318.085 121.634 -322.544 128.441 -321.267C128.613 -321.237 128.761 -321.211 128.929 -321.156L128.958 -321.176Z" fill="url(#paint43_linear_0_1)"/>
<path d="M-297.077 -252.601C-276.726 -274.334 -254.33 -294.116 -230.302 -311.55C-206.251 -328.965 -180.588 -344.008 -153.758 -356.428C-126.927 -368.847 -98.9501 -378.62 -70.3713 -385.656C-41.7694 -392.673 -12.5855 -396.93 16.6965 -398.363C45.9784 -399.796 75.3354 -398.425 104.23 -394.309C133.147 -390.174 161.583 -383.271 189.037 -373.706C216.492 -364.14 242.985 -351.936 267.983 -337.343C293.028 -322.711 316.555 -305.711 338.254 -286.72C315.764 -304.769 291.611 -320.65 266.186 -334.034C240.78 -347.441 214.125 -358.333 186.747 -366.542C159.345 -374.771 131.22 -380.317 102.909 -383.121C74.5747 -385.944 46.0123 -386.022 17.7941 -383.383C-10.4471 -380.763 -38.3863 -375.422 -65.4624 -367.517C-92.5807 -359.608 -118.855 -349.111 -143.832 -336.194C-168.808 -323.276 -192.471 -308.003 -214.417 -290.624C-236.363 -273.244 -256.549 -253.761 -274.712 -232.582C-280.104 -226.297 -289.435 -225.863 -295.72 -231.255C-302.005 -236.646 -302.892 -245.81 -297.482 -252.118C-297.347 -252.279 -297.231 -252.417 -297.073 -252.558L-297.077 -252.601Z" fill="url(#paint44_linear_0_1)"/>
<path d="M-477.339 -269.715C-455.648 -302.964 -430.821 -334.126 -403.308 -362.581C-375.759 -391.016 -345.544 -416.711 -313.189 -439.231C-280.834 -461.751 -246.361 -481.061 -210.464 -496.916C-174.532 -512.752 -137.197 -525.099 -99.079 -533.76C-60.9614 -542.422 -22.096 -547.419 16.7975 -548.704C55.7256 -549.97 94.6618 -547.489 132.927 -541.286C171.191 -535.082 208.805 -525.19 245.008 -511.817C281.281 -498.403 316.11 -481.528 349 -461.615C315.29 -480.108 279.898 -495.368 243.414 -507.056C206.95 -518.779 169.428 -526.909 131.577 -531.349C93.6919 -535.809 55.4774 -536.58 17.6535 -533.707C-20.2051 -530.854 -57.7277 -524.343 -94.1693 -514.344C-130.646 -504.365 -166.096 -490.884 -199.818 -474.235C-233.595 -457.571 -265.665 -437.704 -295.471 -414.96C-325.276 -392.215 -352.812 -366.682 -377.604 -338.781C-402.397 -310.879 -424.391 -280.623 -443.338 -248.606C-448.962 -239.105 -461.115 -236.376 -470.616 -242C-480.116 -247.624 -483.403 -259.452 -477.759 -268.987C-477.619 -269.23 -477.499 -269.438 -477.324 -269.66L-477.339 -269.715Z" fill="url(#paint45_linear_0_1)"/>
<path d="M-60.1002 -709.312C-10.8341 -715.258 38.9527 -716.522 88.3072 -713.04C137.67 -709.508 186.552 -701.22 234.113 -688.333C281.673 -675.446 327.863 -657.951 371.888 -636.318C415.922 -614.635 457.743 -588.804 496.664 -559.264C535.585 -529.724 571.597 -496.523 604.079 -460.313C636.568 -424.054 665.478 -384.777 690.283 -343.152C715.088 -301.527 735.837 -257.562 752.121 -212.15C768.421 -166.639 780.246 -119.73 787.605 -72.2364C778.228 -119.374 764.404 -165.525 746.281 -209.851C728.208 -254.186 705.845 -296.648 679.684 -336.46C653.514 -376.321 623.548 -413.533 590.406 -447.443C557.255 -481.403 520.871 -512.101 482.017 -538.962C443.153 -565.872 401.761 -588.986 358.723 -607.9C315.627 -626.854 270.836 -641.6 225.108 -651.866C179.381 -662.131 132.807 -667.983 86.1694 -669.304C39.5314 -670.626 -7.11307 -667.376 -52.9935 -659.794C-66.6098 -657.546 -78.9878 -666.99 -81.2365 -680.606C-83.4851 -694.222 -74.7999 -706.873 -61.1342 -709.13C-60.7895 -709.191 -60.4941 -709.243 -60.1407 -709.255L-60.1002 -709.312Z" fill="url(#paint46_linear_0_1)"/>
<path d="M540.572 -731.508C590.446 -698.972 637.188 -661.732 679.871 -620.461C722.524 -579.138 761.066 -533.815 794.846 -485.283C828.625 -436.751 857.591 -385.041 881.374 -331.195C905.128 -277.297 923.647 -221.295 936.64 -164.118C949.632 -106.942 957.127 -48.6438 959.056 9.69646C960.954 68.0886 957.233 126.493 947.928 183.89C938.623 241.287 923.785 297.707 903.725 352.013C883.604 406.422 858.292 458.665 828.423 508C856.161 457.435 879.052 404.348 896.583 349.622C914.167 294.926 926.362 238.643 933.023 181.866C939.713 125.038 940.869 67.7164 936.56 10.9805C932.28 -45.8073 922.514 -102.091 907.516 -156.754C892.548 -211.468 872.326 -264.643 847.352 -315.227C822.356 -365.893 792.556 -413.998 758.439 -458.706C724.323 -503.414 686.023 -544.717 644.17 -581.906C602.317 -619.095 556.933 -652.087 508.909 -680.507C494.658 -688.942 490.564 -707.172 499 -721.423C507.435 -735.674 525.177 -740.604 539.481 -732.138C539.844 -731.928 540.156 -731.748 540.49 -731.486L540.572 -731.508Z" fill="url(#paint47_linear_0_1)"/>
<path d="M-287.959 -973.394C-221.48 -993.568 -153.145 -1007.42 -84.2513 -1014.61C-15.334 -1021.74 54.0755 -1022.2 122.781 -1015.99C191.487 -1009.79 259.424 -996.898 325.382 -977.773C391.365 -958.583 455.304 -933.137 516.147 -901.871C576.99 -870.605 634.712 -833.585 688.298 -791.558C741.908 -749.465 791.315 -702.341 835.633 -650.982C879.952 -599.622 919.248 -544.051 952.739 -485.398C986.277 -426.614 1013.98 -364.813 1035.68 -301.121C1011.29 -363.832 981.009 -424.1 945.246 -480.809C909.55 -537.541 868.394 -590.648 822.647 -639.178C776.876 -687.774 726.513 -731.794 672.576 -770.49C618.614 -809.251 560.988 -842.731 500.888 -870.32C440.764 -897.974 378.076 -919.778 314.139 -935.392C250.113 -951.048 184.774 -960.49 119.232 -963.527C53.6913 -966.564 -11.9438 -963.309 -76.5663 -953.793C-141.189 -944.277 -204.709 -928.457 -266.122 -906.85C-284.349 -900.439 -303.711 -910.451 -310.122 -928.677C-316.532 -946.904 -307.633 -966.457 -289.34 -972.891C-288.88 -973.059 -288.485 -973.203 -288.001 -973.305L-287.959 -973.394Z" fill="url(#paint48_linear_0_1)"/>
<path d="M-1151.83 -424.919C-1119.29 -501.135 -1079.55 -574.196 -1033.3 -642.667C-986.978 -711.11 -934.175 -774.886 -875.824 -832.91C-817.473 -890.934 -753.603 -943.128 -685.553 -988.737C-617.426 -1034.32 -545.148 -1073.23 -469.926 -1104.86C-394.704 -1136.48 -316.616 -1160.84 -237.126 -1177.58C-157.556 -1194.29 -76.6128 -1203.31 4.30007 -1204.43C85.2129 -1205.54 166.124 -1198.84 245.398 -1184.47C324.83 -1170.05 402.547 -1147.98 477.38 -1118.97C401.376 -1144.76 323.087 -1163.31 243.847 -1174.11C164.636 -1184.99 84.5515 -1188.1 5.12855 -1183.51C-74.3728 -1178.95 -153.213 -1166.68 -229.929 -1147.06C-306.724 -1127.47 -381.503 -1100.48 -452.794 -1066.72C-524.165 -1032.98 -592.155 -992.419 -655.447 -945.967C-718.845 -899.466 -777.572 -846.999 -830.601 -789.437C-883.63 -731.875 -930.982 -669.403 -971.836 -603.056C-1012.69 -536.709 -1046.94 -466.536 -1074.28 -393.849C-1082.4 -372.279 -1106.39 -362.263 -1127.97 -370.38C-1149.54 -378.498 -1160.58 -401.622 -1152.43 -423.271C-1152.23 -423.82 -1152.06 -424.291 -1151.78 -424.812L-1151.83 -424.919Z" fill="url(#paint49_linear_0_1)"/>
<path d="M336.848 -1307.03C423.839 -1286.76 508.83 -1258.25 590.166 -1221.97C671.487 -1185.61 749.066 -1141.5 821.578 -1090.42C894.09 -1039.34 961.447 -981.315 1022.6 -917.619C1083.73 -853.834 1138.56 -784.397 1186.21 -710.471C1233.86 -636.544 1274.33 -558.216 1306.98 -476.972C1339.61 -395.64 1364.33 -311.408 1380.66 -225.73C1396.99 -140.053 1405.02 -52.9147 1404.61 33.9225C1404.16 120.937 1395.28 207.561 1378.49 292.425C1391.65 206.921 1396.68 120.349 1393.31 34.216C1390.04 -51.9011 1378.35 -137.491 1358.61 -220.936C1338.89 -304.47 1311.11 -385.86 1275.93 -463.621C1240.76 -541.47 1198.12 -615.794 1148.94 -685.148C1099.77 -754.591 1043.98 -819.169 982.832 -877.657C921.606 -936.249 854.922 -988.766 783.897 -1034.28C712.872 -1079.8 637.697 -1118.37 559.625 -1149.31C481.553 -1180.26 400.656 -1203.48 318.384 -1218.9C293.968 -1223.48 278.845 -1247.07 283.425 -1271.49C288.004 -1295.91 310.483 -1311.96 334.987 -1307.36C335.607 -1307.25 336.139 -1307.16 336.744 -1306.96L336.848 -1307.03Z" fill="url(#paint50_linear_0_1)"/>
<path d="M-38.7992 -1567.19C65.354 -1570.61 169.74 -1564.15 272.353 -1547.83C374.975 -1531.4 475.719 -1505.12 572.857 -1469.45C669.995 -1433.79 763.422 -1388.74 851.564 -1335.42C939.716 -1282 1022.48 -1220.31 1098.49 -1151.39C1174.51 -1082.46 1243.77 -1006.42 1305.1 -924.721C1366.43 -842.92 1419.72 -755.462 1463.99 -663.842C1508.27 -572.222 1543.63 -476.449 1569.38 -378.466C1595.15 -280.274 1611.3 -179.975 1618.01 -79.2706C1607.02 -179.599 1586.54 -278.677 1556.74 -374.725C1527.05 -470.783 1488.04 -563.706 1440.59 -651.782C1393.14 -739.962 1337.26 -823.293 1274.14 -900.3C1211 -977.41 1140.5 -1048.29 1064.14 -1111.6C987.759 -1175.01 905.396 -1230.94 818.821 -1278.38C732.133 -1325.92 641.128 -1364.97 547.345 -1394.81C453.562 -1424.66 357.201 -1445.42 259.875 -1456.72C162.55 -1468.02 64.3749 -1469.76 -32.9951 -1462.3C-61.8922 -1460.09 -86.0586 -1482.11 -88.2706 -1511.01C-90.4825 -1539.9 -69.9976 -1564.78 -40.9958 -1567C-40.2636 -1567.06 -39.636 -1567.12 -38.8946 -1567.08L-38.7992 -1567.19Z" fill="url(#paint51_linear_0_1)"/>
<path d="M-589.998 -1688.87C-477.31 -1727.41 -361.063 -1755.22 -243.463 -1771.67C-125.818 -1788.01 -6.92987 -1792.95 111.151 -1786.43C229.232 -1779.91 346.395 -1761.88 460.542 -1733.06C574.734 -1704.14 685.8 -1664.37 791.909 -1614.44C898.018 -1564.51 999.126 -1504.54 1093.45 -1435.75C1187.81 -1366.84 1275.28 -1289.06 1354.28 -1203.72C1433.28 -1118.38 1503.93 -1025.52 1564.81 -927.041C1625.79 -828.335 1676.96 -724.114 1717.93 -616.292C1672.39 -722.271 1616.91 -823.714 1552.25 -918.73C1487.7 -1013.79 1414.01 -1102.31 1332.73 -1182.72C1251.41 -1263.24 1162.49 -1335.64 1067.77 -1398.71C973.001 -1461.89 872.271 -1515.8 767.654 -1559.47C662.992 -1603.25 554.288 -1636.86 443.816 -1659.78C333.187 -1682.78 220.68 -1695.04 108.21 -1696.32C-4.25961 -1697.61 -116.514 -1688.1 -226.658 -1667.93C-336.803 -1647.76 -444.682 -1616.86 -548.605 -1576.17C-579.448 -1564.09 -613.219 -1580.09 -625.292 -1610.93C-637.365 -1641.77 -623.289 -1675.81 -592.334 -1687.92C-591.555 -1688.24 -590.888 -1688.51 -590.064 -1688.71L-589.998 -1688.87Z" fill="url(#paint52_linear_0_1)"/>
<path d="M-1858.98 -1129.97C-1780.35 -1250.49 -1690.35 -1363.45 -1590.61 -1466.61C-1490.75 -1569.68 -1381.22 -1662.83 -1263.93 -1744.46C-1146.65 -1826.1 -1021.68 -1896.1 -891.555 -1953.57C-761.302 -2010.98 -625.962 -2055.73 -487.786 -2087.13C-349.609 -2118.53 -208.722 -2136.64 -67.7333 -2141.3C73.3811 -2145.89 214.525 -2136.9 353.235 -2114.41C491.944 -2091.92 628.293 -2056.06 759.531 -2007.59C891.02 -1958.96 1017.27 -1897.79 1136.5 -1825.61C1014.3 -1892.64 886.007 -1947.96 753.752 -1990.33C621.571 -2032.82 485.554 -2062.29 348.344 -2078.39C211.009 -2094.56 72.4815 -2097.35 -64.6302 -2086.94C-201.867 -2076.6 -337.887 -2052.99 -469.988 -2016.75C-602.214 -1980.57 -730.72 -1931.71 -852.965 -1871.35C-975.407 -1810.94 -1091.66 -1738.93 -1199.71 -1656.48C-1307.75 -1574.03 -1407.57 -1481.47 -1497.44 -1380.33C-1587.31 -1279.18 -1667.04 -1169.51 -1735.72 -1053.45C-1756.11 -1019.01 -1800.16 -1009.11 -1834.61 -1029.5C-1869.05 -1049.89 -1880.96 -1092.76 -1860.5 -1127.33C-1859.99 -1128.21 -1859.56 -1128.96 -1858.92 -1129.77L-1858.98 -1129.97Z" fill="url(#paint53_linear_0_1)"/>
<path d="M-721.191 -2299.47C-569.239 -2345.58 -413.044 -2377.23 -255.574 -2393.68C-98.0487 -2409.98 60.6018 -2411.03 217.644 -2396.84C374.686 -2382.66 529.969 -2353.19 680.731 -2309.48C831.549 -2265.62 977.695 -2207.46 1116.76 -2135.99C1255.83 -2064.53 1387.77 -1979.91 1510.25 -1883.85C1632.79 -1787.63 1745.72 -1679.92 1847.02 -1562.53C1948.32 -1445.14 2038.14 -1318.12 2114.69 -1184.05C2191.35 -1049.69 2254.68 -908.43 2304.26 -762.848C2248.52 -906.186 2179.31 -1043.94 2097.56 -1173.56C2015.97 -1303.24 1921.9 -1424.62 1817.34 -1535.55C1712.72 -1646.63 1597.6 -1747.24 1474.32 -1835.69C1350.98 -1924.29 1219.26 -2000.81 1081.89 -2063.87C944.46 -2127.08 801.173 -2176.92 655.033 -2212.61C508.688 -2248.4 359.34 -2269.98 209.532 -2276.92C59.7234 -2283.86 -90.2996 -2276.42 -238.008 -2254.67C-385.717 -2232.92 -530.906 -2196.76 -671.279 -2147.37C-712.94 -2132.72 -757.196 -2155.6 -771.849 -2197.26C-786.501 -2238.92 -766.16 -2283.62 -724.349 -2298.32C-723.296 -2298.71 -722.394 -2299.03 -721.287 -2299.27L-721.191 -2299.47Z" fill="url(#paint54_linear_0_1)"/>
<path d="M48.9998 3058C1705.85 3058 3049 1714.85 3049 57.9998C3049 -1598.85 1705.85 -2942 48.9998 -2942C-1607.85 -2942 -2951 -1598.85 -2951 57.9998C-2951 1714.85 -1607.85 3058 48.9998 3058Z" fill="url(#paint55_radial_0_1)" fill-opacity="0.1"/>
</g>
<g style="mix-blend-mode:color">
<rect width="2133" height="1745" fill="#0E89AF"/>
</g>
<defs>
<filter id="filter0_dd_0_1" x="45" y="58" width="2008" height="1508" filterUnits="userSpaceOnUse" color-interpolation-filters="sRGB">
<feFlood flood-opacity="0" result="BackgroundImageFix"/>
<feColorMatrix in="SourceAlpha" type="matrix" values="0 0 0 0 0 0 0 0 0 0 0 0 0 0 0 0 0 0 127 0" result="hardAlpha"/>
<feOffset dy="4"/>
<feGaussianBlur stdDeviation="2"/>
<feComposite in2="hardAlpha" operator="out"/>
<feColorMatrix type="matrix" values="0 0 0 0 0 0 0 0 0 0 0 0 0 0 0 0 0 0 0.25 0"/>
<feBlend mode="normal" in2="BackgroundImageFix" result="effect1_dropShadow_0_1"/>
<feColorMatrix in="SourceAlpha" type="matrix" values="0 0 0 0 0 0 0 0 0 0 0 0 0 0 0 0 0 0 127 0" result="hardAlpha"/>
<feOffset dy="4"/>
<feGaussianBlur stdDeviation="2"/>
<feComposite in2="hardAlpha" operator="out"/>
<feColorMatrix type="matrix" values="0 0 0 0 0 0 0 0 0 0 0 0 0 0 0 0 0 0 0.25 0"/>
<feBlend mode="normal" in2="effect1_dropShadow_0_1" result="effect2_dropShadow_0_1"/>
<feBlend mode="normal" in="SourceGraphic" in2="effect2_dropShadow_0_1" result="shape"/>
</filter>
<radialGradient id="paint0_radial_0_1" cx="0" cy="0" r="1" gradientUnits="userSpaceOnUse" gradientTransform="translate(48.9998 57.9998) scale(3000)">
<stop stop-color="#FFBB33"/>
<stop offset="1" stop-color="#EE5522"/>
</radialGradient>
<radialGradient id="paint1_radial_0_1" cx="0" cy="0" r="1" gradientUnits="userSpaceOnUse" gradientTransform="translate(48.9998 57.9998) scale(2000)">
<stop stop-color="#FFBB33"/>
<stop offset="1" stop-color="#EE5522"/>
</radialGradient>
<radialGradient id="paint2_radial_0_1" cx="0" cy="0" r="1" gradientUnits="userSpaceOnUse" gradientTransform="translate(48.9998 57.9998) scale(1800)">
<stop stop-color="#FFBB33"/>
<stop offset="1" stop-color="#EE5522"/>
</radialGradient>
<radialGradient id="paint3_radial_0_1" cx="0" cy="0" r="1" gradientUnits="userSpaceOnUse" gradientTransform="translate(48.9998 57.9998) scale(1700)">
<stop stop-color="#FFBB33"/>
<stop offset="1" stop-color="#EE5522"/>
</radialGradient>
<radialGradient id="paint4_radial_0_1" cx="0" cy="0" r="1" gradientUnits="userSpaceOnUse" gradientTransform="translate(48.9998 57.9998) scale(1651)">
<stop stop-color="#FFBB33"/>
<stop offset="1" stop-color="#EE5522"/>
</radialGradient>
<radialGradient id="paint5_radial_0_1" cx="0" cy="0" r="1" gradientUnits="userSpaceOnUse" gradientTransform="translate(48.9998 57.9998) scale(1450)">
<stop stop-color="#FFBB33"/>
<stop offset="1" stop-color="#EE5522"/>
</radialGradient>
<radialGradient id="paint6_radial_0_1" cx="0" cy="0" r="1" gradientUnits="userSpaceOnUse" gradientTransform="translate(48.9998 57.9998) scale(1250)">
<stop stop-color="#FFBB33"/>
<stop offset="1" stop-color="#EE5522"/>
</radialGradient>
<radialGradient id="paint7_radial_0_1" cx="0" cy="0" r="1" gradientUnits="userSpaceOnUse" gradientTransform="translate(48.9998 57.9998) scale(1175)">
<stop stop-color="#FFBB33"/>
<stop offset="1" stop-color="#EE5522"/>
</radialGradient>
<radialGradient id="paint8_radial_0_1" cx="0" cy="0" r="1" gradientUnits="userSpaceOnUse" gradientTransform="translate(48.9998 57.9998) scale(900)">
<stop stop-color="#FFBB33"/>
<stop offset="1" stop-color="#EE5522"/>
</radialGradient>
<radialGradient id="paint9_radial_0_1" cx="0" cy="0" r="1" gradientUnits="userSpaceOnUse" gradientTransform="translate(48.9998 57.9998) scale(750)">
<stop stop-color="#FFBB33"/>
<stop offset="1" stop-color="#EE5522"/>
</radialGradient>
<radialGradient id="paint10_radial_0_1" cx="0" cy="0" r="1" gradientUnits="userSpaceOnUse" gradientTransform="translate(48.9998 57.9998) scale(500)">
<stop stop-color="#FFBB33"/>
<stop offset="1" stop-color="#EE5522"/>
</radialGradient>
<radialGradient id="paint11_radial_0_1" cx="0" cy="0" r="1" gradientUnits="userSpaceOnUse" gradientTransform="translate(48.9998 57.9998) scale(380)">
<stop stop-color="#FFBB33"/>
<stop offset="1" stop-color="#EE5522"/>
</radialGradient>
<radialGradient id="paint12_radial_0_1" cx="0" cy="0" r="1" gradientUnits="userSpaceOnUse" gradientTransform="translate(48.9998 57.9998) scale(250)">
<stop stop-color="#FFBB33"/>
<stop offset="1" stop-color="#EE5522"/>
</radialGradient>
<linearGradient id="paint13_linear_0_1" x1="-35.5724" y1="88.7816" x2="28.0433" y2="263.564" gradientUnits="userSpaceOnUse">
<stop stop-color="#F7882B"/>
<stop offset="1" stop-color="#EE5522"/>
</linearGradient>
<linearGradient id="paint14_linear_0_1" x1="-2.30311" y1="198.954" x2="289.002" y2="304.98" gradientUnits="userSpaceOnUse">
<stop stop-color="#F7882B"/>
<stop offset="1" stop-color="#EE5522"/>
</linearGradient>
<linearGradient id="paint15_linear_0_1" x1="-94.6334" y1="178.522" x2="154.447" y2="475.365" gradientUnits="userSpaceOnUse">
<stop stop-color="#F7882B"/>
<stop offset="1" stop-color="#EE5522"/>
</linearGradient>
<linearGradient id="paint16_linear_0_1" x1="88.0707" y1="279.582" x2="546.006" y2="198.835" gradientUnits="userSpaceOnUse">
<stop stop-color="#F7882B"/>
<stop offset="1" stop-color="#EE5522"/>
</linearGradient>
<linearGradient id="paint17_linear_0_1" x1="151.606" y1="339.907" x2="734.215" y2="127.855" gradientUnits="userSpaceOnUse">
<stop stop-color="#F7882B"/>
<stop offset="1" stop-color="#EE5522"/>
</linearGradient>
<linearGradient id="paint18_linear_0_1" x1="-138.5" y1="382.759" x2="532.67" y2="770.259" gradientUnits="userSpaceOnUse">
<stop stop-color="#F7882B"/>
<stop offset="1" stop-color="#EE5522"/>
</linearGradient>
<linearGradient id="paint19_linear_0_1" x1="-373.862" y1="211.909" x2="-55.783" y2="1085.82" gradientUnits="userSpaceOnUse">
<stop stop-color="#F7882B"/>
<stop offset="1" stop-color="#EE5522"/>
</linearGradient>
<linearGradient id="paint20_linear_0_1" x1="-130.561" y1="551.338" x2="889.006" y2="922.43" gradientUnits="userSpaceOnUse">
<stop stop-color="#F7882B"/>
<stop offset="1" stop-color="#EE5522"/>
</linearGradient>
<linearGradient id="paint21_linear_0_1" x1="362.125" y1="600.348" x2="1482.98" y2="-46.7768" gradientUnits="userSpaceOnUse">
<stop stop-color="#F7882B"/>
<stop offset="1" stop-color="#EE5522"/>
</linearGradient>
<linearGradient id="paint22_linear_0_1" x1="-468.08" y1="491.881" x2="428.609" y2="1560.51" gradientUnits="userSpaceOnUse">
<stop stop-color="#F7882B"/>
<stop offset="1" stop-color="#EE5522"/>
</linearGradient>
<linearGradient id="paint23_linear_0_1" x1="-402.692" y1="703.082" x2="930.478" y2="1636.58" gradientUnits="userSpaceOnUse">
<stop stop-color="#F7882B"/>
<stop offset="1" stop-color="#EE5522"/>
</linearGradient>
<linearGradient id="paint24_linear_0_1" x1="-229.115" y1="913.951" x2="1539.85" y2="1488.72" gradientUnits="userSpaceOnUse">
<stop stop-color="#F7882B"/>
<stop offset="1" stop-color="#EE5522"/>
</linearGradient>
<linearGradient id="paint25_linear_0_1" x1="814.853" y1="700.627" x2="2142.95" y2="-882.136" gradientUnits="userSpaceOnUse">
<stop stop-color="#F7882B"/>
<stop offset="1" stop-color="#EE5522"/>
</linearGradient>
<linearGradient id="paint26_linear_0_1" x1="420.947" y1="1079.92" x2="2532.91" y2="311.225" gradientUnits="userSpaceOnUse">
<stop stop-color="#F7882B"/>
<stop offset="1" stop-color="#EE5522"/>
</linearGradient>
<linearGradient id="paint27_linear_0_1" x1="-361.424" y1="1185.63" x2="1969.01" y2="2033.84" gradientUnits="userSpaceOnUse">
<stop stop-color="#F7882B"/>
<stop offset="1" stop-color="#EE5522"/>
</linearGradient>
<linearGradient id="paint28_linear_0_1" x1="-65.9067" y1="-38.4184" x2="-265.171" y2="199.055" gradientUnits="userSpaceOnUse">
<stop stop-color="#F7882B"/>
<stop offset="1" stop-color="#EE5522"/>
</linearGradient>
<linearGradient id="paint29_linear_0_1" x1="-15.1288" y1="-118.193" x2="-379.26" y2="14.3402" gradientUnits="userSpaceOnUse">
<stop stop-color="#F7882B"/>
<stop offset="1" stop-color="#EE5522"/>
</linearGradient>
<linearGradient id="paint30_linear_0_1" x1="-172.582" y1="18.9289" x2="-253.328" y2="476.864" gradientUnits="userSpaceOnUse">
<stop stop-color="#F7882B"/>
<stop offset="1" stop-color="#EE5522"/>
</linearGradient>
<linearGradient id="paint31_linear_0_1" x1="-251" y1="57.9997" x2="-251" y2="678" gradientUnits="userSpaceOnUse">
<stop stop-color="#F7882B"/>
<stop offset="1" stop-color="#EE5522"/>
</linearGradient>
<linearGradient id="paint32_linear_0_1" x1="-192.045" y1="-229.267" x2="-785.73" y2="268.893" gradientUnits="userSpaceOnUse">
<stop stop-color="#F7882B"/>
<stop offset="1" stop-color="#EE5522"/>
</linearGradient>
<linearGradient id="paint33_linear_0_1" x1="-353.173" y1="-279.464" x2="-1050.6" y2="551.694" gradientUnits="userSpaceOnUse">
<stop stop-color="#F7882B"/>
<stop offset="1" stop-color="#EE5522"/>
</linearGradient>
<linearGradient id="paint34_linear_0_1" x1="-567.736" y1="166.747" x2="-342.992" y2="1441.33" gradientUnits="userSpaceOnUse">
<stop stop-color="#F7882B"/>
<stop offset="1" stop-color="#EE5522"/>
</linearGradient>
<linearGradient id="paint35_linear_0_1" x1="-181.864" y1="-576.293" x2="-1492.73" y2="-99.1747" gradientUnits="userSpaceOnUse">
<stop stop-color="#F7882B"/>
<stop offset="1" stop-color="#EE5522"/>
</linearGradient>
<linearGradient id="paint36_linear_0_1" x1="-402.692" y1="-587.083" x2="-1735.86" y2="346.413" gradientUnits="userSpaceOnUse">
<stop stop-color="#F7882B"/>
<stop offset="1" stop-color="#EE5522"/>
</linearGradient>
<linearGradient id="paint37_linear_0_1" x1="-660.21" y1="-496.096" x2="-1805.34" y2="969.604" gradientUnits="userSpaceOnUse">
<stop stop-color="#F7882B"/>
<stop offset="1" stop-color="#EE5522"/>
</linearGradient>
<linearGradient id="paint38_linear_0_1" x1="-816.809" y1="557.875" x2="216.266" y2="2347.21" gradientUnits="userSpaceOnUse">
<stop stop-color="#F7882B"/>
<stop offset="1" stop-color="#EE5522"/>
</linearGradient>
<linearGradient id="paint39_linear_0_1" x1="-1038.5" y1="57.9997" x2="-1038.5" y2="2305.5" gradientUnits="userSpaceOnUse">
<stop stop-color="#F7882B"/>
<stop offset="1" stop-color="#EE5522"/>
</linearGradient>
<linearGradient id="paint40_linear_0_1" x1="-870.253" y1="-713.345" x2="-2464.37" y2="1186.44" gradientUnits="userSpaceOnUse">
<stop stop-color="#F7882B"/>
<stop offset="1" stop-color="#EE5522"/>
</linearGradient>
<linearGradient id="paint41_linear_0_1" x1="126.942" y1="103" x2="219.942" y2="-58.081" gradientUnits="userSpaceOnUse">
<stop stop-color="#F7882B"/>
<stop offset="1" stop-color="#EE5522"/>
</linearGradient>
<linearGradient id="paint42_linear_0_1" x1="189.954" y1="6.69671" x2="83.9273" y2="-284.608" gradientUnits="userSpaceOnUse">
<stop stop-color="#F7882B"/>
<stop offset="1" stop-color="#EE5522"/>
</linearGradient>
<linearGradient id="paint43_linear_0_1" x1="233.651" y1="90.5588" x2="300.94" y2="-291.054" gradientUnits="userSpaceOnUse">
<stop stop-color="#F7882B"/>
<stop offset="1" stop-color="#EE5522"/>
</linearGradient>
<linearGradient id="paint44_linear_0_1" x1="193.627" y1="-114.36" x2="-162.584" y2="-413.256" gradientUnits="userSpaceOnUse">
<stop stop-color="#F7882B"/>
<stop offset="1" stop-color="#EE5522"/>
</linearGradient>
<linearGradient id="paint45_linear_0_1" x1="199" y1="-201.808" x2="-337.936" y2="-511.808" gradientUnits="userSpaceOnUse">
<stop stop-color="#F7882B"/>
<stop offset="1" stop-color="#EE5522"/>
</linearGradient>
<linearGradient id="paint46_linear_0_1" x1="418.303" y1="-7.11834" x2="283.725" y2="-770.344" gradientUnits="userSpaceOnUse">
<stop stop-color="#F7882B"/>
<stop offset="1" stop-color="#EE5522"/>
</linearGradient>
<linearGradient id="paint47_linear_0_1" x1="438.711" y1="283" x2="903.711" y2="-522.404" gradientUnits="userSpaceOnUse">
<stop stop-color="#F7882B"/>
<stop offset="1" stop-color="#EE5522"/>
</linearGradient>
<linearGradient id="paint48_linear_0_1" x1="542.338" y1="-121.561" x2="171.246" y2="-1141.13" gradientUnits="userSpaceOnUse">
<stop stop-color="#F7882B"/>
<stop offset="1" stop-color="#EE5522"/>
</linearGradient>
<linearGradient id="paint49_linear_0_1" x1="263.19" y1="-530.483" x2="-953.007" y2="-973.142" gradientUnits="userSpaceOnUse">
<stop stop-color="#F7882B"/>
<stop offset="1" stop-color="#EE5522"/>
</linearGradient>
<linearGradient id="paint50_linear_0_1" x1="713.745" y1="175.212" x2="955.984" y2="-1198.59" gradientUnits="userSpaceOnUse">
<stop stop-color="#F7882B"/>
<stop offset="1" stop-color="#EE5522"/>
</linearGradient>
<linearGradient id="paint51_linear_0_1" x1="833.503" y1="-10.6355" x2="691.657" y2="-1631.94" gradientUnits="userSpaceOnUse">
<stop stop-color="#F7882B"/>
<stop offset="1" stop-color="#EE5522"/>
</linearGradient>
<linearGradient id="paint52_linear_0_1" x1="883.465" y1="-279.146" x2="186.697" y2="-2003.71" gradientUnits="userSpaceOnUse">
<stop stop-color="#F7882B"/>
<stop offset="1" stop-color="#EE5522"/>
</linearGradient>
<linearGradient id="paint53_linear_0_1" x1="592.75" y1="-883.803" x2="-1353.64" y2="-2007.55" gradientUnits="userSpaceOnUse">
<stop stop-color="#F7882B"/>
<stop offset="1" stop-color="#EE5522"/>
</linearGradient>
<linearGradient id="paint54_linear_0_1" x1="1176.63" y1="-352.424" x2="328.421" y2="-2682.86" gradientUnits="userSpaceOnUse">
<stop stop-color="#F7882B"/>
<stop offset="1" stop-color="#EE5522"/>
</linearGradient>
<radialGradient id="paint55_radial_0_1" cx="0" cy="0" r="1" gradientUnits="userSpaceOnUse" gradientTransform="translate(48.9998 57.9998) scale(3000)">
<stop stop-color="#FFBB33"/>
<stop offset="1" stop-color="#EE5522"/>
</radialGradient>
<clipPath id="clip0_0_1">
<rect width="2000" height="1500" fill="white" transform="translate(49 58)"/>
</clipPath>
</defs>
</svg>
