<svg width="40" height="41" viewBox="0 0 40 41" fill="none" xmlns="http://www.w3.org/2000/svg">
<path fill-rule="evenodd" clip-rule="evenodd" d="M19.1502 11.7825C19.1502 11.7111 19.1669 11.6404 19.1995 11.5745C19.2321 11.5085 19.2798 11.4486 19.34 11.3981C19.4002 11.3477 19.4716 11.3076 19.5502 11.2803C19.6288 11.253 19.7131 11.2389 19.7982 11.2389C19.8833 11.2389 19.9676 11.253 20.0462 11.2803C20.1248 11.3076 20.1963 11.3477 20.2564 11.3981C20.3166 11.4486 20.3644 11.5085 20.3969 11.5745C20.4295 11.6404 20.4463 11.7111 20.4463 11.7825V13.8982H22.305C22.4687 13.9088 22.6216 13.9708 22.7332 14.0719C22.8447 14.173 22.9067 14.3056 22.9067 14.4433C22.9067 14.5811 22.8447 14.7137 22.7332 14.8148C22.6216 14.9159 22.4687 14.9779 22.305 14.9885H19.7905C19.6186 14.9885 19.4538 14.9313 19.3322 14.8293C19.2107 14.7274 19.1424 14.5891 19.1424 14.445V11.7825H19.1502ZM20.7334 1.20415V6.65281L30.8692 11.5351C31.8161 12.0494 31.6997 11.8248 31.6997 12.7589V17.3646H37.5204C38.1747 17.3663 38.8019 17.5842 39.266 17.971C39.7302 18.3579 39.9939 18.8826 40 19.4314V40.2138H26.267V26.3871C26.267 23.6725 24.6411 21.9214 22.5572 21.1468C21.7517 20.8481 20.8807 20.6938 20 20.6938C19.1193 20.6938 18.2483 20.8481 17.4428 21.1468C15.3589 21.9214 13.733 23.6693 13.733 26.3871V40.2236H0V19.4314C0.00205124 18.8806 0.264079 18.353 0.728766 17.9638C1.19345 17.5746 1.82298 17.3557 2.47963 17.3548H8.30035V12.7166C8.30035 11.7988 8.2305 12.0266 9.1851 11.5254L19.6158 6.64304V1.20415C19.5183 1.09724 19.4628 0.967607 19.4567 0.8331C19.4572 0.737807 19.4847 0.643979 19.5371 0.559413C19.5895 0.474846 19.6651 0.401982 19.7578 0.346874C19.8505 0.291766 19.9575 0.256005 20.07 0.242562C20.1825 0.229118 20.2972 0.238382 20.4045 0.269581C20.5119 0.300781 20.6088 0.353017 20.6872 0.421948C20.7657 0.49088 20.8234 0.574518 20.8555 0.665913C20.8877 0.757307 20.8934 0.853821 20.8722 0.947434C20.8509 1.04105 20.8034 1.12906 20.7334 1.20415ZM21.2728 1.43525C25.0175 -0.748768 25.2969 3.54766 28.9717 0.878668V5.2402C25.4792 7.88315 24.7031 3.61276 21.2728 5.78376V1.42223V1.43525ZM21.6298 17.2702C22.5741 16.9548 23.3597 16.3759 23.8542 15.6311C24.3487 14.8864 24.5218 14.0213 24.3443 13.1819C24.1668 12.3425 23.6495 11.5802 22.8797 11.0235C22.1099 10.4669 21.1348 10.15 20.1188 10.1263C19.1029 10.1026 18.1083 10.3736 17.3028 10.8936C16.4974 11.4135 15.9305 12.1506 15.6976 12.9804C15.4648 13.8103 15.5804 14.6821 16.0248 15.4487C16.4693 16.2154 17.2154 16.83 18.1374 17.1888C18.6824 17.4007 19.2731 17.5173 19.8736 17.5312C20.4741 17.5452 21.0716 17.4564 21.6298 17.2702ZM24.6061 40.2366H15.3939V26.3871C15.3939 24.304 16.5852 22.9825 18.1102 22.4129C18.7065 22.1956 19.3498 22.0834 20 22.0834C20.6502 22.0834 21.2935 22.1956 21.8898 22.4129C23.4148 22.9825 24.6061 24.304 24.6061 26.3871V40.2236V40.2366ZM29.2627 35.3185H32.0101V37.3332H29.2588V35.3022L29.2627 35.3185ZM33.7136 28.9324H36.4765V26.9176H33.7136V28.9487V28.9324ZM33.7136 24.7304H36.4765V22.6863H33.7136V24.7173V24.7304ZM29.2588 28.9324H32.0062V26.9176H29.2588V28.9487V28.9324ZM29.2588 24.7304H32.0062V22.6863H29.2588V24.7173V24.7304ZM33.7136 31.1034H36.4765V33.1344H33.7136V31.1034ZM33.7136 35.3054H36.4765V37.3332H33.7136V35.3022V35.3054ZM29.2588 31.1034H32.0062V33.1344H29.2588V31.1034ZM3.54288 35.3054H6.28638V37.3332H3.54288V35.3022V35.3054ZM7.99379 28.9324H10.7412V26.9176H7.99379V28.9487V28.9324ZM7.99379 24.7304H10.7412V22.6863H7.99379V24.7173V24.7304ZM3.54288 28.9324H6.28638V26.9176H3.54288V28.9487V28.9324ZM3.54288 24.7304H6.28638V22.6863H3.54288V24.7173V24.7304ZM7.99379 31.1034H10.7412V33.1344H7.99379V31.1034ZM7.99379 35.3054H10.7412V37.3332H7.99379V35.3022V35.3054ZM3.54288 31.1034H6.28638V33.1344H3.54288V31.1034Z" fill="white"/>
</svg>
