<svg width="40" height="40" viewBox="0 0 40 40" fill="none" xmlns="http://www.w3.org/2000/svg">
<path d="M20.3984 0.943604L40.3963 9.51566V12.3716H37.7313C37.7313 12.7564 37.5884 13.0932 37.3027 13.3775C37.0171 13.6617 36.6824 13.8017 36.2906 13.8017H4.50609C4.11838 13.8017 3.77964 13.6617 3.49395 13.3775C3.20827 13.0932 3.06543 12.7608 3.06543 12.3716H0.400391V9.51566L20.3984 0.943604ZM5.73454 15.2274H11.0687V32.3716H13.7337V15.2274H19.0679V32.3716H21.7329V15.2274H27.0671V32.3716H29.7321V15.2274H35.0662V32.3716H36.2947C36.6824 32.3716 37.0211 32.5115 37.3068 32.7958C37.5925 33.0801 37.7354 33.4124 37.7354 33.8017V35.2318H3.06543V33.8017C3.06543 33.4168 3.20827 33.0801 3.49395 32.7958C3.77964 32.5115 4.1143 32.3716 4.50609 32.3716H5.73454V15.2274ZM38.9597 36.6576C39.3474 36.6576 39.6862 36.7975 39.9719 37.0818C40.2575 37.3661 40.4004 37.6985 40.4004 38.0877V40.9436H0.400391V38.0877C0.400391 37.7028 0.543233 37.3661 0.828918 37.0818C1.1146 36.7975 1.44926 36.6576 1.84106 36.6576H38.9597Z" fill="white"/>
</svg>
