<svg width="40" height="41" viewBox="0 0 40 41" fill="none" xmlns="http://www.w3.org/2000/svg">
<path fill-rule="evenodd" clip-rule="evenodd" d="M11.882 10.7718L11.9367 8.63176L18.6109 10.6797C19.8141 10.9578 21.0234 10.9578 22.2266 10.6797L28.6016 8.61017V10.996C28.6016 12.2893 28.6367 13.2523 28.4688 14.5357C28.3945 15.1085 28.2695 15.6638 28.0477 16.0407C28.1078 16.0698 28.1648 16.1063 28.218 16.1494C28.9062 16.7023 28.8602 18.1418 28.7047 18.9495C28.6141 19.4185 28.4578 19.8734 28.2336 20.2379C27.9773 20.6529 27.6328 20.9551 27.1953 21.0464C27.0922 21.4839 26.9609 21.9189 26.8055 22.3456C26.3602 23.5634 25.707 24.7148 24.8852 25.6869C25.1703 26.1426 25.4727 26.6042 25.7797 27.045C27.8969 28.985 33.9484 29.3868 36.2109 30.7274C36.932 31.1549 37.5836 31.6987 38.1078 32.4342C39.4148 34.268 39.5266 35.8137 40 38.0617C39.8844 39.3716 39.1852 40.1245 37.8102 40.2366H2.18984C0.814844 40.1245 0.115625 39.3716 0 38.0617C0.473437 35.8137 0.585156 34.268 1.89219 32.4342C2.41641 31.6987 3.06797 31.1549 3.78906 30.7274C5.9375 29.454 11.5008 29.0281 13.8703 27.328C14.2406 26.82 14.6234 26.2223 14.9656 25.6877L15.0023 25.6312C14.3922 24.9265 13.9141 24.1984 13.4195 23.4048C13.1969 23.0512 12.925 22.6187 12.7672 22.1638C12.6219 21.7454 12.5578 21.3328 12.5195 21.0854L12.518 21.0281C12.1148 20.9194 11.7953 20.6288 11.5547 20.2379C11.332 19.8767 11.1758 19.4276 11.0852 18.9628C10.9219 18.1285 10.8805 16.6293 11.6195 16.1129C11.8164 15.9751 12.05 15.9228 12.3195 15.976C12.4008 15.9942 12.1227 15.3625 12.0781 15.1865C11.6695 13.5794 11.8414 12.3856 11.882 10.7718ZM26.2758 14.9814C24.2789 15.7078 21.5484 15.9901 20.4 16.0482C19.2578 16.1063 15.5742 15.6431 13.5047 14.8495V19.382L13.5 20.0154C13.4867 21.3976 13.482 21.8425 14.3914 23.2836L14.7008 23.7543C15.5531 24.9929 16.4617 25.8703 17.3805 26.4307C18.3773 27.0383 19.3906 27.2741 20.3617 27.1944C21.3344 27.1147 22.2703 26.7187 23.1109 26.0654C24.3711 25.0867 25.7703 23.018 26.1305 21.3801C26.2594 20.7899 26.2758 20.1681 26.2758 19.2251V14.9814ZM24.1719 26.4415C23.1094 27.4434 21.8023 28.164 20.368 28.2794C18.5711 28.423 16.9883 27.6003 15.6922 26.3584C15.2688 26.9238 14.8281 27.5762 14.4336 28.1009C16.4508 33.1166 24.4383 33.2593 25.5703 28.4172C25.0852 27.812 24.6125 27.1163 24.1719 26.4415ZM27.2547 17.5441V19.9813C27.6289 19.7705 27.8305 19.0989 27.8656 18.39C27.8828 18.224 27.9133 16.8742 27.6328 16.9281C27.4195 16.9696 27.2977 17.3548 27.2547 17.5441ZM12.5328 19.9813V17.5441C12.4891 17.354 12.3688 16.9696 12.1547 16.9281C11.8742 16.8742 11.9047 18.224 11.9219 18.39C11.9891 19.0416 12.1922 19.7116 12.5328 19.9813ZM9.12266 5.52456V10.7967H8.96562C8.85859 10.7967 8.77109 10.8905 8.77109 11.0034V12.4205C8.7715 12.4752 8.79213 12.5275 8.82852 12.5662C8.86491 12.6048 8.91416 12.6268 8.96562 12.6272H9.12266V13.1236C8.92344 13.1635 8.77109 13.3511 8.77109 13.5727C8.77109 13.8234 8.96563 14.0309 9.20156 14.0309H9.97266C10.2086 14.0309 10.4031 13.8251 10.4031 13.5735C10.4031 13.3511 10.2508 13.1635 10.0516 13.1236V12.6272H10.2086C10.3148 12.6272 10.4031 12.5342 10.4031 12.4205V11.0034C10.4031 10.8897 10.3156 10.7967 10.2086 10.7967H10.0516V5.83088L18.1734 8.51554C19.6445 8.88661 21.1148 8.91151 22.5859 8.51554L31.55 5.67233L32.3602 5.41499C33.3703 4.97668 33.118 3.94648 32.1781 3.70989L22.0391 0.493123C20.9937 0.176842 19.9484 0.126204 18.9023 0.493123L8.94609 3.67088C7.86406 3.95063 7.64922 5.01569 8.90938 5.454L9.12266 5.52456Z" fill="white"/>
</svg>
