<svg width="40" height="40" viewBox="0 0 40 40" fill="none" xmlns="http://www.w3.org/2000/svg">
<path d="M4.03999 34.7605H20C20.84 34.7605 21.68 33.9205 21.68 33.0805V32.8005C21.68 31.9605 20.84 31.1205 20 31.1205H4.03999C3.19999 31.1205 2.35999 31.9605 2.35999 32.8005V33.0805C2.35999 33.9205 3.19999 34.7605 4.03999 34.7605ZM21.96 36.1605H2.07999C1.23999 36.1605 0.399994 37.0005 0.399994 37.8405V38.4005C0.399994 38.9605 0.959994 39.8005 2.07999 39.8005H22.24C23.08 39.8005 23.92 38.9605 23.92 38.1205V37.5605C23.64 36.7205 22.8 36.1605 21.96 36.1605Z" fill="white"/>
<path d="M21.4 12.9206C22.24 13.7606 22.24 14.8806 21.4 15.7206L16.92 20.2006C16.08 21.0406 14.96 21.0406 14.12 20.2006L7.95999 14.0406C7.11999 13.2006 7.11999 12.0806 7.95999 11.2406L12.44 6.76058C13.28 6.20058 14.4 6.20058 15.24 6.76058L21.4 12.9206Z" fill="white"/>
<path d="M14.12 22.7205C14.4 23.0005 14.4 23.8405 14.12 24.1205L12.16 26.0805C11.88 26.3605 11.04 26.3605 10.76 26.0805L2.35998 17.6805C1.51998 17.4005 1.51998 16.5605 2.07998 16.2805L4.03998 14.3205C4.31998 14.0405 5.15998 14.0405 5.43998 14.3205L14.12 22.7205Z" fill="white"/>
<path d="M27.28 9.28053C27.56 9.56053 27.56 10.4005 27.28 10.6805L25.32 12.9205C25.04 13.2005 24.2 13.2005 23.92 12.9205L15.52 4.52053C14.96 3.96053 14.96 3.40053 15.24 2.84053L17.2 0.880532C17.76 0.600532 18.32 0.600532 18.88 0.880532L27.28 9.28053Z" fill="white"/>
<path d="M38.76 33.3606C37.92 32.5206 37.08 32.2406 36.24 32.5206C35.68 30.5606 33.72 28.0406 31.2 25.5206C28.4 22.7206 25.6 21.0406 23.92 20.4806C24.2 19.6406 24.2 18.8006 23.92 18.2406C23.08 17.6806 21.4 17.9606 20.28 19.0806C19.16 20.2006 18.88 21.8806 19.44 22.4406C20 23.0006 20.84 23.0006 21.68 22.7206C22.24 24.6806 23.92 27.4806 26.72 30.0006C29.24 32.5206 31.76 34.2006 33.72 35.0406C33.44 35.8806 33.72 37.0006 34.56 37.5606C35.68 38.6806 37.64 38.6806 38.76 37.5606C39.88 36.4406 39.88 34.4806 38.76 33.3606Z" fill="white"/>
</svg>
