<svg width="26" height="40" viewBox="0 0 26 40" fill="none" xmlns="http://www.w3.org/2000/svg">
<path d="M9.09515 0.768183C8.78998 0.920597 8.67827 1.08774 8.16407 2.13116C7.85111 2.76311 7.65765 3.05998 7.40425 3.2884C6.86787 3.77589 6.5479 3.84434 5.12558 3.82126C3.96367 3.79857 3.88933 3.80614 3.67329 3.96611C3.23383 4.28567 3.17428 4.54473 3.23383 5.81618C3.27859 6.76808 3.2712 6.99651 3.16688 7.32362C2.95085 7.97825 2.56354 8.34397 1.47637 8.90707C0.426172 9.45544 0.225319 9.65322 0.165764 10.1861C0.121 10.5594 0.187951 10.7114 0.798684 11.6784C1.37205 12.5845 1.48376 12.8583 1.47637 13.3916C1.47637 13.9853 1.37205 14.2595 0.836052 15.1274C0.180555 16.1705 0.121 16.2998 0.165764 16.6731C0.225319 17.2059 0.426561 17.4041 1.47637 17.9521C2.56354 18.5156 2.95085 18.8809 3.16688 19.5359C3.2712 19.8555 3.27859 20.0994 3.24123 21.074C3.18167 22.3988 3.24123 22.6196 3.76243 22.9316C4.03802 23.0992 4.09758 23.0992 5.17735 23.0534C6.13063 23.0077 6.36145 23.0232 6.68181 23.1294C7.30733 23.3427 7.67984 23.7614 8.25321 24.8884C8.67788 25.7336 8.79699 25.9012 9.04261 26.0456C9.58639 26.3576 9.80982 26.2967 10.9418 25.5506C11.8429 24.9568 12.0885 24.8502 12.6545 24.8502C13.2204 24.8502 13.466 24.9568 14.3672 25.5506C15.4991 26.2967 15.7225 26.3576 16.2663 26.0456C16.5119 25.9008 16.6314 25.7336 17.0557 24.8884C17.6291 23.7618 18.0016 23.3427 18.6271 23.1294C18.9475 23.0228 19.1705 23.0077 20.109 23.0534C21.1292 23.1067 21.2261 23.0992 21.5091 22.9543C21.71 22.8477 21.8664 22.6877 21.9708 22.4824C22.1121 22.193 22.1198 22.094 22.0677 21.0509C22.0229 20.099 22.0377 19.863 22.142 19.5359C22.3581 18.8889 22.738 18.5231 23.8325 17.9521C24.8901 17.3961 25.091 17.1984 25.1431 16.6731C25.1879 16.3002 25.121 16.1478 24.5102 15.1808C23.9295 14.2595 23.8251 14.0084 23.8251 13.4298C23.8251 12.8512 23.9295 12.6 24.5102 11.6788C25.121 10.7118 25.1879 10.5594 25.1431 10.1865C25.091 9.66118 24.8897 9.46301 23.8325 8.90746C23.1101 8.52663 22.7897 8.31372 22.5663 8.05466C22.0973 7.50668 22.0225 7.17917 22.0525 5.72506C22.0747 4.54513 22.0673 4.46873 21.9108 4.24786C21.5979 3.79858 21.3448 3.73769 20.1012 3.79858C19.1701 3.84434 18.9467 3.83678 18.6267 3.73013C17.9938 3.50927 17.6361 3.11331 17.0775 2.00183C16.5337 0.920597 16.3403 0.715254 15.8264 0.661928C15.4617 0.616165 15.3126 0.684612 14.3072 1.3472C13.473 1.89558 13.1975 2.00183 12.6167 2.00183C12.0955 2.00939 11.8273 1.89518 10.941 1.309C9.83979 0.585524 9.60157 0.509117 9.09515 0.768183ZM14.6135 5.46559C15.4329 5.67889 16.5053 6.17355 17.1904 6.65347C17.8085 7.07212 18.6053 7.85648 19.067 8.4733C19.5882 9.1737 20.2137 10.506 20.4523 11.4122C20.6236 12.0899 20.6458 12.3107 20.6458 13.4298C20.6458 14.5488 20.6236 14.7697 20.4523 15.4474C20.2141 16.3535 19.5885 17.6859 19.067 18.3863C18.6053 19.0031 17.8085 19.787 17.1904 20.2061C16.5201 20.678 15.4403 21.1731 14.6135 21.4015C13.9654 21.5766 13.7424 21.5993 12.6548 21.5993C11.5677 21.5993 11.3442 21.5766 10.6961 21.4015C9.86937 21.1731 8.78959 20.678 8.1193 20.2061C7.50118 19.7874 6.70438 19.0031 6.24273 18.3863C5.72153 17.6859 5.096 16.3535 4.85739 15.4474C4.68612 14.7697 4.66393 14.5488 4.66393 13.4298C4.66393 12.3103 4.68612 12.0899 4.85739 11.4122C5.09561 10.506 5.72114 9.1737 6.24273 8.4733C7.48638 6.79833 9.4303 5.61801 11.5081 5.28333C12.2753 5.16116 13.7946 5.25269 14.6135 5.46559Z" fill="white"/>
<path d="M11.6278 7.11925C10.3468 7.34012 9.24481 7.93386 8.26156 8.93908C7.0327 10.1954 6.39978 11.718 6.39978 13.4311C6.39978 15.1443 7.0327 16.6669 8.26156 17.9232C9.59474 19.2858 11.1957 19.9177 13.0279 19.8035C16.1855 19.5978 18.6876 17.0398 18.8889 13.8116C18.9632 12.5783 18.6802 11.3523 18.0699 10.2332C17.6452 9.45642 16.5432 8.32982 15.7834 7.89565C14.5098 7.16502 13.0057 6.88327 11.6278 7.11925Z" fill="white"/>
<path d="M6.0347 25.1332C4.82063 27.8285 1.11224 36.47 1.11224 36.5994C1.11224 36.8202 1.24615 36.9571 1.45478 36.9571C1.54392 36.9571 2.27415 36.6985 3.07834 36.3861C3.88253 36.0741 4.63495 35.815 4.76146 35.815C5.05924 35.815 5.43175 35.9826 5.63299 36.2034C5.72213 36.3025 6.04248 37.0487 6.34804 37.8557C7.01833 39.6222 7.16741 39.8351 7.52474 39.5004C7.5917 39.4395 8.7684 36.8127 10.1386 33.676C11.5013 30.539 12.6333 27.9734 12.6558 27.9734C12.6784 27.9734 13.8026 30.5163 15.1505 33.6227C16.5059 36.7291 17.6678 39.3484 17.7422 39.4471C17.9134 39.6604 18.0995 39.668 18.2785 39.4698C18.3455 39.3938 18.6585 38.6627 18.9636 37.8557C19.2688 37.0487 19.5892 36.3025 19.6787 36.2034C19.8799 35.9826 20.252 35.815 20.5498 35.815C20.6763 35.815 21.4287 36.0741 22.2329 36.3861C23.0371 36.6981 23.767 36.9571 23.8565 36.9571C24.0651 36.9571 24.199 36.8202 24.199 36.5994C24.199 36.3558 19.2092 24.9124 19.1127 24.9506C19.0753 24.9581 18.8223 25.3999 18.5467 25.9176C17.966 27.0215 17.5935 27.4401 16.901 27.7752C16.4615 27.9885 16.3498 28.0112 15.7095 28.0112C14.8827 28.0112 14.6297 27.9121 13.4752 27.1433C13.0879 26.8922 12.7232 26.6789 12.6562 26.6789C12.5893 26.6789 12.2242 26.8922 11.8369 27.1433C10.6827 27.9121 10.4293 28.0112 9.60256 28.0112C8.96224 28.0112 8.85053 27.9885 8.41107 27.7752C7.71859 27.4401 7.34608 27.0215 6.76532 25.9176C6.48973 25.3999 6.23672 24.9581 6.19935 24.9506C6.1612 24.935 6.08686 25.019 6.0347 25.1332Z" fill="white"/>
</svg>
